P2
# Created by GIMP version 2.10.2 PNM plug-in
13 13
255
189
198
204
209
212
209
199
187
173
157
141
123
105
176
187
196
203
208
212
210
202
190
176
160
144
126
160
174
185
195
202
207
212
211
204
192
179
163
147
143
158
172
183
193
201
207
211
212
205
194
181
166
124
139
155
169
181
191
200
206
210
212
207
196
184
106
121
137
152
167
179
190
198
205
210
212
209
199
87
103
118
134
149
164
177
188
197
204
209
212
210
72
84
100
115
131
147
161
175
186
195
203
208
212
70
71
82
97
113
128
144
158
172
184
194
202
207
70
70
71
79
93
110
125
141
156
170
182
192
200
70
70
70
70
76
91
107
122
138
153
168
180
190
70
70
70
70
70
74
88
104
120
135
151
165
178
70
70
70
70
70
70
73
85
101
117
132
148
162
