P2
# Created by GIMP version 2.10.2 PNM plug-in
12 12
255
189
198
205
210
212
206
194
179
163
145
126
106
175
187
197
204
209
212
208
196
182
166
149
130
157
172
185
195
203
209
212
209
198
185
169
152
138
154
169
182
193
202
208
212
210
201
188
172
118
135
151
167
180
191
200
207
211
211
203
190
98
115
131
148
164
178
190
199
206
211
212
205
78
95
112
128
145
161
176
188
197
204
210
212
70
76
92
109
125
142
158
173
186
196
203
209
70
70
74
88
106
122
139
155
171
183
194
202
70
70
70
72
86
102
119
136
153
168
181
192
70
70
70
70
71
82
99
116
133
149
165
179
70
70
70
70
70
71
80
96
113
130
147
163
