P2
# CREATOR: GIMP PNM Filter Version 1.1
100 100
255
188
192
193
194
195
196
197
198
199
200
201
203
203
204
204
205
206
207
208
208
208
208
210
211
211
211
211
213
213
213
213
213
213
214
213
213
212
211
210
209
208
206
205
203
202
201
199
198
196
194
193
192
190
188
186
186
183
181
179
177
176
174
172
169
166
164
164
162
159
157
155
152
151
148
146
144
142
140
137
134
132
129
128
126
124
121
118
117
114
110
109
106
104
102
99
98
95
91
89
87
186
190
191
193
194
195
195
197
199
199
200
201
202
202
203
204
205
205
207
207
208
207
208
210
210
211
211
212
212
213
213
213
213
213
213
213
213
212
211
210
209
208
207
205
204
202
201
199
198
196
194
193
192
190
189
187
186
183
181
180
177
176
174
172
169
167
165
164
162
160
158
155
153
151
148
146
145
143
140
138
135
132
130
128
127
123
121
119
117
115
110
108
107
104
102
99
98
95
92
89
184
188
190
191
193
194
194
195
196
198
199
200
200
202
202
203
204
205
206
206
207
208
207
208
209
210
210
211
211
212
213
213
213
213
213
213
214
213
212
212
210
209
209
207
205
203
203
201
200
199
197
195
193
192
190
189
187
186
184
182
180
178
176
175
172
170
168
165
164
163
159
158
155
153
151
149
147
145
143
141
138
135
132
130
129
127
124
122
120
118
115
111
109
107
105
102
100
98
95
92
183
187
188
190
191
192
193
194
196
196
197
199
200
201
202
203
203
204
205
205
206
207
207
208
208
209
210
211
211
212
212
213
213
213
213
213
213
213
213
212
213
210
209
209
208
206
204
203
202
200
198
197
195
194
192
191
189
188
186
185
182
180
178
177
175
172
170
168
165
164
162
161
158
156
154
151
150
148
146
144
141
139
136
133
131
128
127
125
122
120
118
115
112
110
108
105
102
100
98
96
182
185
187
188
189
190
192
193
193
195
196
197
199
199
200
201
202
203
204
205
205
206
207
207
208
208
209
210
211
211
211
212
213
214
213
213
213
213
214
213
213
212
210
209
209
208
206
204
203
202
200
199
197
195
194
193
191
189
188
187
185
183
181
178
177
175
173
171
169
166
164
163
161
159
156
153
151
150
147
146
144
141
140
136
133
131
129
128
125
122
121
118
116
113
110
108
106
103
101
99
181
183
184
186
188
189
190
192
193
193
195
196
197
199
199
200
201
202
203
204
204
205
206
207
208
207
207
208
209
211
211
211
212
213
213
213
213
213
214
213
213
213
212
211
209
209
208
207
205
203
202
200
199
198
196
194
193
191
190
188
187
185
183
181
178
177
175
173
171
169
166
165
164
161
159
157
154
152
151
147
146
145
142
140
137
133
131
130
128
126
123
121
119
116
114
111
108
106
103
101
179
182
183
184
185
187
188
190
191
193
194
194
196
197
199
199
200
201
202
203
204
204
205
206
207
208
207
207
208
209
211
211
211
212
212
213
213
213
213
214
214
213
213
212
211
210
209
209
207
205
203
203
201
199
198
196
195
193
192
190
188
187
186
183
181
179
177
176
174
172
169
167
164
164
162
160
157
154
152
151
148
146
145
142
141
137
134
132
130
128
127
123
121
119
116
115
110
108
107
103
178
180
182
182
184
185
187
189
190
191
193
194
194
195
197
198
199
200
200
202
203
203
204
205
205
207
208
208
208
208
209
211
211
211
211
211
213
213
213
213
213
213
213
213
212
212
210
209
209
207
206
204
203
201
200
198
197
195
193
192
191
189
187
186
184
181
179
177
176
174
172
170
168
165
164
162
160
158
155
153
151
149
146
145
143
140
138
135
132
130
129
127
124
122
119
117
115
111
109
107
177
178
180
181
182
183
186
187
188
190
191
193
194
194
195
196
198
200
200
201
201
202
203
204
205
206
206
207
207
208
208
209
210
211
211
211
212
213
213
213
213
213
213
214
213
212
212
210
210
209
208
206
205
203
202
200
198
197
196
194
192
190
189
187
186
184
182
180
178
177
174
173
171
168
165
163
163
160
158
156
153
151
149
148
145
143
141
139
136
132
131
129
127
124
121
119
118
115
112
109
175
177
178
180
181
182
184
185
186
188
189
191
192
194
194
195
196
197
199
199
200
201
202
203
204
204
206
206
207
207
208
208
210
210
211
211
212
212
214
213
213
213
213
213
213
213
213
213
211
209
209
208
206
204
203
202
199
199
197
196
194
193
191
189
188
187
185
182
180
178
177
175
173
171
169
166
163
163
161
159
156
153
151
149
147
146
143
141
139
136
133
130
129
127
125
121
120
118
116
113
172
175
177
178
180
180
182
183
185
186
188
189
191
192
193
194
195
196
197
199
199
200
202
203
203
204
204
205
205
208
207
208
208
209
210
211
211
211
211
213
213
213
213
213
213
213
213
213
212
211
209
209
208
206
204
203
202
200
199
197
197
194
193
192
189
188
187
185
182
181
178
177
175
173
171
169
166
165
164
161
159
156
153
152
150
148
147
144
142
140
137
133
131
130
127
126
123
120
119
116
171
172
174
177
178
179
180
182
183
184
186
187
188
190
192
193
194
194
196
197
198
199
200
201
202
203
204
204
205
205
207
207
207
207
209
210
210
211
211
211
213
214
213
213
213
213
213
213
213
212
211
210
209
209
207
204
203
202
201
199
197
196
194
193
192
189
188
187
186
183
181
179
177
176
174
172
169
167
165
164
161
159
158
154
152
151
148
146
144
142
140
137
133
131
129
128
126
123
121
119
169
171
172
174
176
178
179
180
182
182
184
186
187
189
190
192
193
194
194
196
197
198
199
200
201
202
203
203
204
205
206
206
207
207
207
208
209
210
210
211
212
212
213
213
213
213
213
213
214
213
212
211
210
209
209
207
205
204
203
201
199
198
196
195
193
191
190
189
187
186
184
181
180
177
176
174
172
170
167
165
164
162
160
158
155
153
150
148
147
145
143
141
137
134
132
130
128
127
123
121
167
169
170
172
174
176
178
178
180
181
183
184
185
187
189
190
191
193
194
194
196
196
197
200
200
200
201
202
203
204
205
206
206
208
207
207
208
209
210
211
211
211
212
213
214
213
213
213
214
213
213
213
212
211
209
209
207
205
204
203
201
199
198
197
195
193
192
190
189
187
186
184
182
180
178
176
174
172
170
168
165
164
163
160
158
156
152
151
149
147
145
143
141
138
135
132
130
129
127
125
166
167
169
170
172
174
176
178
179
180
180
182
183
185
186
187
189
191
192
194
194
195
196
197
199
199
200
202
202
203
204
205
206
206
207
207
208
208
209
210
211
211
211
211
213
213
213
213
214
214
214
213
212
212
211
210
209
208
205
204
203
201
199
199
197
196
194
192
190
190
188
186
184
182
180
179
176
175
173
171
168
165
164
163
160
159
156
153
151
150
148
146
144
142
139
136
133
130
129
127
163
165
167
168
170
171
173
175
177
178
179
180
182
183
185
187
188
189
190
192
193
194
195
196
197
199
199
200
201
202
203
204
204
205
207
207
207
208
208
209
210
211
211
211
212
213
213
213
214
214
213
213
213
212
212
211
210
209
208
205
204
203
202
200
199
197
196
194
193
191
189
188
187
185
182
180
179
177
176
172
171
169
166
165
162
161
159
157
154
150
150
148
146
144
141
139
136
133
131
129
161
162
165
167
169
170
171
172
175
177
179
179
180
182
183
185
186
187
189
190
192
194
194
195
196
196
199
199
199
201
203
203
204
204
206
206
207
207
207
207
209
210
210
211
211
212
213
213
213
213
213
213
213
213
212
212
211
210
209
209
206
205
204
202
200
199
197
196
194
193
191
190
188
187
185
183
181
179
177
176
173
171
168
166
165
163
161
159
157
154
152
151
148
146
144
142
140
137
134
131
160
160
161
164
167
169
170
171
172
174
177
178
179
180
182
182
184
186
187
189
190
192
193
194
195
195
197
198
199
200
201
202
203
203
204
205
206
207
207
207
207
208
209
210
211
211
211
212
213
213
213
213
213
213
213
213
212
212
210
209
209
207
205
204
202
201
199
198
196
195
193
191
190
189
187
186
184
181
180
178
176
174
172
169
167
165
164
162
159
157
155
152
151
149
146
145
143
140
137
134
157
157
159
161
164
166
168
169
170
172
174
176
178
179
180
181
183
184
185
187
189
190
191
193
194
194
196
197
198
199
200
200
202
203
203
204
205
205
206
207
207
207
208
209
211
211
211
211
212
213
213
213
213
213
213
213
213
212
212
210
209
209
207
205
204
203
201
199
199
197
195
193
192
190
189
187
185
184
181
179
178
176
174
172
170
168
165
163
163
160
158
155
153
151
149
147
145
143
141
137
155
155
157
159
162
163
165
168
170
170
171
173
175
177
178
179
181
182
183
185
186
188
190
191
193
194
194
195
196
198
199
200
200
201
203
203
204
205
206
206
207
207
208
208
209
209
211
211
212
211
213
213
214
213
213
213
214
214
212
212
211
210
209
207
206
204
203
202
199
199
197
195
193
192
191
189
187
187
184
182
180
178
176
174
173
170
168
166
164
163
160
158
156
153
151
150
147
145
143
141
153
153
155
157
158
161
163
165
167
169
170
171
173
176
178
179
179
181
182
183
185
186
187
189
190
192
193
193
195
196
197
198
199
200
201
202
203
204
204
206
206
206
207
208
208
209
210
211
211
212
212
213
213
214
213
213
213
213
213
213
212
211
210
209
208
205
205
203
202
199
199
198
196
194
192
191
190
189
187
185
182
181
178
176
175
173
171
169
166
164
163
161
159
156
154
151
150
147
146
143
151
151
152
154
157
159
161
162
164
167
168
170
171
172
176
177
178
179
180
182
183
185
186
187
189
191
192
193
194
195
196
197
198
199
200
201
202
203
203
204
205
206
207
207
208
208
209
210
210
211
212
212
213
214
213
213
213
213
214
213
212
212
211
210
209
208
206
204
204
203
200
199
198
196
195
193
191
190
188
186
185
183
181
179
177
176
173
171
169
166
165
164
161
159
157
154
151
151
148
146
149
149
151
152
154
157
159
160
162
164
167
169
170
171
172
174
177
178
179
180
182
183
184
186
187
189
190
192
194
194
194
196
197
199
199
200
201
202
203
203
204
205
206
207
207
208
207
208
210
211
211
211
212
212
213
213
213
213
213
213
213
213
212
211
210
209
208
207
204
204
202
201
199
197
197
195
193
192
189
188
187
185
183
180
179
177
176
174
172
169
167
164
163
162
159
157
155
151
150
148
147
146
148
150
152
154
156
158
160
162
163
166
168
169
171
173
174
176
178
179
180
181
182
184
185
187
189
190
191
193
194
194
196
196
198
199
200
200
201
202
203
204
205
205
206
208
208
208
208
209
210
211
211
212
212
213
213
213
213
213
213
213
213
212
212
210
209
208
207
205
204
202
201
199
198
197
195
193
192
190
189
187
186
183
181
179
177
176
174
172
170
168
165
164
163
159
157
155
153
151
144
144
146
148
150
152
154
156
158
159
162
163
166
168
169
170
172
174
176
178
178
180
181
183
183
186
187
188
190
190
193
194
194
195
196
197
199
200
201
201
202
203
204
205
206
206
208
208
208
208
209
211
211
212
211
212
213
213
213
213
213
213
213
213
212
212
211
209
208
208
206
203
203
201
199
199
197
195
193
193
190
189
187
186
184
181
180
178
176
175
173
171
168
165
164
163
160
158
156
153
143
141
143
146
148
150
152
154
155
157
159
161
163
166
168
169
170
172
173
175
177
179
180
180
183
183
186
187
188
189
191
192
193
193
195
196
197
199
199
200
202
203
203
204
205
205
206
207
207
208
207
209
209
211
211
212
212
214
214
214
213
214
214
214
213
212
212
211
209
209
208
206
204
203
201
200
199
197
196
193
192
191
189
187
186
184
182
180
178
176
175
173
171
169
165
165
163
160
158
156
140
139
141
143
146
147
149
151
153
154
157
159
160
162
165
167
169
170
171
173
175
177
179
180
181
183
183
184
186
188
189
191
192
193
194
195
196
197
199
199
200
201
202
203
204
205
205
206
207
208
208
208
209
210
211
211
212
211
213
214
214
214
213
213
213
213
213
212
211
209
209
208
206
205
204
202
200
199
197
196
194
192
191
190
188
186
185
182
180
179
177
175
173
171
169
166
164
163
161
159
138
135
139
141
142
145
147
149
151
152
154
157
159
160
162
164
166
168
170
171
172
175
177
178
179
180
182
182
184
186
187
189
190
192
194
194
195
196
197
199
199
200
201
203
203
204
204
205
206
207
208
208
207
208
210
211
211
211
212
212
214
213
213
213
213
213
213
213
212
211
210
209
208
207
205
203
202
200
199
198
197
195
193
192
190
188
187
186
182
181
179
177
176
174
172
169
167
164
163
161
136
133
135
138
141
142
144
147
148
150
151
154
156
158
160
162
164
166
169
170
171
172
174
177
178
179
180
182
183
184
186
187
189
190
192
193
194
194
195
197
198
199
200
201
201
202
203
204
205
205
207
208
208
207
208
209
210
210
211
211
213
213
213
213
213
213
213
213
213
212
211
210
209
208
207
205
203
202
201
199
198
196
194
193
192
190
189
187
186
183
181
179
178
176
174
171
170
166
165
163
134
131
133
135
137
141
142
144
146
148
150
152
154
156
158
159
162
164
167
168
169
171
172
174
176
177
179
180
182
182
184
185
187
189
190
191
193
194
194
195
196
198
199
200
200
201
203
203
204
204
206
206
207
207
208
208
209
210
211
211
211
212
213
213
213
212
213
214
214
213
212
212
210
209
209
208
205
204
203
202
200
198
197
195
193
192
190
189
187
187
184
181
180
178
176
175
172
170
168
165
131
128
132
133
135
137
140
142
144
146
147
149
151
154
155
158
159
161
163
165
167
169
171
171
173
175
177
179
180
181
182
183
186
186
188
190
191
192
194
194
196
196
198
198
200
201
202
202
203
204
205
206
206
207
207
208
207
209
209
211
211
211
212
213
213
213
212
213
213
214
213
212
212
210
209
209
208
206
204
203
202
199
199
197
195
194
192
190
189
187
186
185
182
180
178
177
175
172
170
168
129
126
129
131
132
134
137
139
142
143
146
147
149
151
153
155
157
159
161
163
165
167
169
170
171
173
176
177
178
180
181
182
183
185
187
187
189
191
192
193
194
195
196
197
198
199
201
201
203
203
204
204
205
206
207
207
208
207
209
209
211
211
211
211
213
213
213
213
213
214
214
213
212
212
211
209
209
208
205
204
203
202
200
199
198
195
194
192
191
189
187
187
185
182
181
178
177
176
173
171
128
124
126
128
131
133
134
137
139
141
142
144
147
149
151
153
154
157
159
161
162
164
167
169
170
171
172
174
177
179
179
180
182
183
184
186
188
189
190
192
193
194
195
196
198
198
199
200
201
202
203
203
204
205
206
207
207
208
208
208
209
211
211
212
212
213
214
213
213
213
213
213
213
213
212
211
210
209
209
206
205
203
202
201
199
198
196
194
193
192
189
189
187
186
183
181
179
177
176
173
125
121
124
126
128
131
133
134
135
138
141
142
144
146
149
151
152
154
157
159
160
162
164
167
168
169
171
172
174
177
178
180
180
182
183
184
186
187
189
190
191
193
194
194
196
197
199
199
199
200
203
203
203
204
205
206
206
208
207
208
208
210
211
211
211
212
212
213
213
212
213
213
214
213
213
212
212
210
209
209
207
205
204
203
201
200
198
196
195
193
191
190
188
187
185
183
181
179
177
175
124
120
122
124
126
127
130
132
133
135
138
140
142
144
146
148
151
152
154
156
158
160
161
164
166
168
170
170
171
174
177
178
179
180
181
182
184
185
187
188
190
191
193
194
194
196
197
198
199
200
200
202
203
203
204
205
205
207
207
207
208
208
209
210
211
210
211
212
213
213
212
213
213
213
214
213
212
212
210
209
209
207
205
204
202
201
200
198
197
195
193
192
190
189
187
186
184
181
179
178
121
117
120
122
124
125
127
129
131
133
135
137
140
142
143
146
148
150
151
153
155
157
159
161
163
165
168
169
170
172
174
176
178
178
180
181
182
183
186
187
188
189
191
193
194
193
196
196
198
200
200
200
201
202
203
204
205
206
206
208
207
208
208
209
210
211
211
211
212
213
213
213
213
213
214
214
213
212
212
210
209
209
207
205
204
203
202
200
198
197
195
193
192
191
189
187
186
184
181
179
119
114
117
119
122
123
125
126
129
131
133
135
137
139
141
142
146
147
149
151
153
155
157
159
161
163
165
167
169
170
171
173
175
177
178
180
181
182
183
185
187
188
189
191
192
194
193
195
196
197
199
200
200
201
203
203
204
204
205
206
207
207
208
208
210
210
211
211
211
211
213
213
213
213
213
214
213
213
212
212
211
209
209
208
206
204
203
201
200
198
197
195
194
193
191
189
188
186
185
182
117
112
114
117
118
121
122
124
126
128
131
133
134
137
139
142
143
145
147
149
151
152
154
157
159
161
162
164
167
169
170
171
173
175
177
179
179
181
182
183
185
186
187
189
190
192
193
194
195
196
198
199
200
200
202
202
203
203
204
205
206
207
207
207
208
209
210
211
211
211
212
213
213
213
213
214
213
213
213
213
212
211
210
209
208
206
205
203
202
200
199
197
196
194
193
191
190
188
187
185
115
110
112
113
117
118
120
122
124
126
127
131
132
134
136
138
141
142
144
147
149
151
152
154
157
158
160
162
164
166
168
170
171
172
175
177
178
179
180
181
183
185
186
187
188
190
192
194
194
195
196
197
199
199
200
201
202
203
203
204
205
206
207
207
207
207
208
210
210
211
211
212
212
213
213
213
213
213
213
213
213
212
211
210
209
208
207
205
203
203
200
199
198
196
195
193
191
190
188
187
113
107
110
112
113
117
118
120
122
124
125
127
130
132
134
135
137
140
142
143
147
148
150
152
154
156
158
159
161
164
166
169
170
171
172
174
177
178
179
180
182
182
184
186
187
189
190
191
194
194
194
196
196
198
199
199
201
201
203
203
204
205
206
207
207
207
207
208
210
211
211
211
212
213
214
213
213
213
213
213
213
213
212
211
210
209
209
207
205
203
203
201
199
198
197
195
193
192
190
189
111
104
107
110
112
112
116
118
119
122
124
125
126
130
132
133
135
137
141
142
143
146
147
150
152
154
156
157
159
161
163
166
168
169
171
172
174
176
177
179
180
181
182
183
186
187
188
190
190
192
194
194
195
196
198
199
199
200
202
203
203
204
205
205
206
207
207
207
209
210
210
211
210
211
213
213
213
213
213
213
213
213
213
212
212
210
209
209
207
205
204
203
201
199
198
198
195
193
192
190
109
103
105
106
109
112
112
115
117
119
122
124
125
126
129
132
133
134
137
140
142
143
146
147
149
152
153
155
157
159
161
163
165
167
169
170
172
173
175
177
178
180
181
182
183
186
186
188
189
190
192
194
194
195
196
197
199
199
201
201
202
203
204
205
206
207
207
207
208
208
209
210
211
211
211
212
213
213
213
213
213
213
214
213
212
212
211
210
209
208
206
204
203
202
200
198
197
195
194
192
106
101
103
104
106
109
111
112
114
117
119
121
123
125
126
129
131
132
134
136
139
142
143
146
147
149
151
153
155
157
159
161
162
164
167
168
170
171
172
175
177
179
179
180
182
183
185
186
188
189
191
192
193
194
195
196
197
199
200
200
201
202
203
204
205
205
206
207
207
207
208
209
210
211
211
212
212
213
213
213
213
213
213
213
213
212
212
211
210
209
208
206
205
204
202
200
199
197
195
194
104
97
101
103
104
106
108
111
112
114
117
118
121
122
124
126
127
131
132
134
136
139
141
142
145
147
149
151
152
154
157
159
161
162
164
166
168
170
171
172
175
177
178
179
181
182
183
184
186
187
189
190
192
193
194
195
196
197
198
199
200
201
202
203
203
204
205
206
206
207
207
208
208
210
210
212
211
212
212
213
213
213
213
213
213
213
213
212
211
210
209
208
206
204
203
202
201
199
198
196
103
95
97
100
103
104
106
107
111
112
113
117
119
120
122
124
125
127
130
133
133
136
138
141
142
144
147
149
151
152
154
156
158
160
162
164
167
168
170
171
172
174
176
178
179
180
182
183
184
187
187
189
189
192
194
194
194
195
197
199
199
200
200
202
203
203
205
205
206
206
208
207
207
208
210
209
210
211
212
212
213
213
213
213
213
212
213
213
212
211
210
209
209
207
205
204
203
201
199
198
100
93
95
97
99
102
104
105
106
110
112
113
116
118
120
121
124
125
127
129
132
133
135
137
140
142
144
146
148
149
152
154
156
158
159
162
164
165
168
170
171
172
174
176
178
179
180
181
182
183
185
186
188
190
191
193
194
194
195
197
198
199
200
200
202
203
203
204
205
206
206
207
207
208
208
209
210
210
211
211
211
213
213
213
213
213
213
214
213
212
212
210
209
209
207
205
204
203
201
199
98
89
93
94
96
99
102
103
105
106
109
111
112
115
118
119
122
123
125
127
129
132
133
135
137
140
142
144
145
147
149
151
153
155
157
159
161
163
166
168
169
170
172
173
176
178
179
180
181
182
183
186
186
188
190
191
192
193
193
195
196
198
199
200
201
201
202
203
204
204
206
206
207
207
207
208
208
209
211
211
211
212
214
213
214
213
213
213
214
213
212
212
211
210
208
207
205
204
203
202
95
87
90
92
94
96
99
101
104
105
106
109
112
112
115
117
119
121
123
125
127
129
131
133
134
137
139
142
143
145
147
149
151
153
155
157
159
161
163
165
167
169
170
171
173
175
178
179
179
181
183
184
185
186
187
189
191
192
194
194
195
196
197
198
199
201
201
202
203
204
205
206
206
207
207
207
208
209
210
211
211
211
211
212
213
213
213
213
213
213
213
212
212
211
210
209
208
205
204
204
93
86
88
89
91
95
96
98
101
103
105
106
109
112
112
114
116
119
121
123
124
126
128
131
132
134
137
139
142
143
145
147
149
151
152
154
157
159
161
163
164
166
168
170
171
172
175
177
179
179
181
182
183
184
186
187
189
191
192
193
193
195
197
197
199
200
200
201
202
203
204
204
206
206
207
207
208
208
209
210
210
211
211
212
212
213
213
213
213
213
213
213
212
213
211
210
209
208
206
205
91
83
86
87
89
91
94
96
97
100
103
104
106
107
111
112
114
116
118
120
122
124
126
127
131
132
134
136
138
142
142
144
146
148
151
152
154
156
159
160
161
164
166
168
170
171
172
174
177
178
179
181
182
183
184
186
187
189
190
192
193
194
194
196
196
198
199
199
201
202
203
203
204
205
206
206
207
208
207
208
209
211
211
212
211
212
213
213
214
213
213
213
213
213
212
211
210
209
208
206
90
81
84
86
88
89
91
94
95
97
100
102
103
106
107
110
112
114
116
118
120
122
124
125
127
130
132
133
136
137
141
142
144
146
148
150
152
154
157
158
159
162
164
166
169
169
171
172
175
176
178
179
180
182
182
184
186
187
189
190
191
194
194
194
196
196
198
199
200
201
202
203
203
204
205
206
206
207
208
207
208
209
210
211
211
212
212
213
213
213
213
213
213
214
213
212
211
210
209
208
87
79
81
83
85
87
88
90
94
94
96
99
102
103
106
107
110
112
113
116
118
120
121
124
125
127
130
132
133
135
137
140
142
144
147
148
150
152
154
156
157
159
161
163
166
168
169
170
172
173
176
178
179
180
181
182
184
185
188
188
190
191
193
193
193
195
196
198
199
200
200
201
202
203
204
205
206
206
207
207
207
208
209
210
211
211
211
212
214
213
213
213
213
214
214
213
212
212
211
209
85
75
78
81
83
84
86
88
89
93
95
96
99
101
103
105
106
109
111
112
115
117
119
121
124
125
126
128
132
133
134
136
139
142
143
145
148
149
151
153
155
157
159
161
162
165
167
169
170
171
173
175
177
179
180
181
182
183
185
186
188
189
191
192
193
194
195
196
198
199
200
201
202
203
203
204
205
205
206
207
207
208
208
209
210
211
211
211
212
212
214
213
213
213
213
213
213
212
212
210
83
74
75
78
81
83
84
86
88
89
92
94
96
99
101
103
105
106
109
111
112
114
117
119
121
123
124
126
128
132
133
134
136
139
142
142
145
147
149
151
153
155
157
159
160
162
164
167
169
170
172
172
175
177
178
179
181
182
183
185
187
187
189
190
192
194
194
195
196
198
199
200
200
201
202
203
204
204
205
207
207
207
208
208
209
210
210
211
211
211
212
213
213
213
213
213
214
213
212
212
81
71
74
75
77
81
82
84
86
88
89
91
94
96
98
101
103
104
106
108
111
112
114
117
118
121
123
124
126
127
132
132
134
136
138
141
142
145
147
149
151
152
154
157
159
160
162
164
166
168
169
171
172
175
177
178
179
180
182
183
184
187
187
189
190
192
193
194
195
196
197
199
200
200
201
202
204
204
204
205
205
207
207
207
207
208
210
211
211
211
212
212
213
213
213
213
213
213
213
213
81
70
72
74
75
76
79
82
84
86
87
89
91
94
95
97
100
102
104
106
107
111
112
114
116
118
120
122
124
126
127
131
132
133
136
138
141
142
144
146
148
150
152
154
156
158
160
162
164
166
169
170
171
172
174
177
178
179
180
182
183
184
185
187
189
190
192
194
194
195
195
196
198
199
200
201
202
202
203
204
205
205
207
208
207
208
208
210
211
211
211
212
212
213
213
213
213
213
213
213
81
69
70
72
74
75
76
79
81
84
85
87
88
90
94
95
97
99
102
103
106
107
110
111
113
116
118
119
121
124
126
127
129
131
133
135
137
140
142
144
146
148
150
152
154
155
158
159
161
164
166
168
169
170
172
174
176
178
179
180
182
182
184
186
187
189
190
191
193
194
194
195
196
198
199
200
200
202
202
203
204
205
206
206
207
208
208
208
209
210
211
211
212
212
214
213
213
213
213
213
81
69
70
70
72
74
75
76
79
81
83
85
86
88
90
93
95
96
99
101
103
105
106
109
111
112
115
118
119
121
124
125
126
129
131
133
135
137
139
142
144
146
148
149
152
153
155
157
159
161
163
166
167
169
170
172
173
176
178
178
180
181
182
183
185
187
188
190
191
192
193
194
195
196
197
199
200
201
201
202
203
204
205
206
206
207
207
208
208
209
210
211
211
211
212
213
213
213
213
213
81
69
70
70
70
71
73
75
76
79
80
83
84
86
88
90
92
95
96
99
101
104
105
106
109
112
112
114
118
118
121
123
125
126
129
132
133
134
137
139
142
143
146
147
149
152
153
155
157
159
161
162
164
167
169
171
171
173
175
177
178
180
181
182
184
185
187
188
189
191
192
193
194
195
196
197
199
199
200
201
203
203
204
204
206
207
207
207
207
208
209
210
211
211
211
212
213
213
213
213
81
69
70
70
70
70
71
72
74
75
78
80
82
84
86
88
89
91
95
95
99
101
103
105
106
108
111
112
114
117
118
121
123
124
126
128
131
132
134
137
139
142
142
144
146
149
151
152
154
157
159
161
162
164
167
168
170
171
172
175
177
178
179
180
182
183
184
186
187
188
190
192
194
194
195
196
197
199
199
200
201
203
203
204
204
205
206
207
208
207
208
208
210
211
211
211
212
213
214
213
81
69
70
70
70
70
70
71
72
75
75
77
80
82
84
86
87
88
91
94
95
98
100
103
104
106
108
110
112
113
116
118
120
122
124
125
128
130
132
134
136
138
141
142
144
146
149
150
152
154
157
158
160
162
164
166
168
169
170
172
174
177
178
179
180
182
183
184
185
188
189
189
191
193
194
195
195
197
198
199
200
201
202
202
204
204
205
205
207
208
207
208
208
210
210
211
210
211
212
213
81
69
70
70
70
70
70
70
71
72
74
75
76
79
82
84
86
87
89
91
94
95
97
100
102
104
106
107
110
112
113
116
118
120
122
124
126
127
130
132
133
135
138
141
142
143
146
149
150
151
153
156
158
159
161
164
166
169
169
170
172
174
177
178
179
180
182
182
184
185
187
189
189
191
193
194
194
195
197
198
200
200
200
202
203
203
204
205
205
206
208
207
208
208
209
210
211
211
211
212
81
69
70
70
70
70
70
70
70
70
72
74
75
76
79
81
83
85
86
89
90
94
95
96
99
101
103
105
106
109
112
113
116
118
119
122
124
125
127
129
131
133
135
137
140
142
144
146
147
150
152
153
156
157
159
161
163
166
168
169
170
171
174
175
177
178
180
181
182
183
185
187
188
190
191
193
194
194
195
196
198
199
200
201
201
202
203
204
205
206
206
207
207
208
208
209
210
211
211
211
81
69
70
70
70
70
70
70
70
70
70
71
74
75
76
78
81
83
84
86
89
89
92
95
96
99
101
103
105
106
109
112
112
114
117
119
121
123
125
126
129
132
133
134
137
140
142
143
146
147
149
152
153
155
157
159
161
163
165
168
169
171
172
173
176
178
179
180
180
182
184
185
187
188
189
191
192
193
194
195
196
197
199
199
200
201
202
203
204
204
205
206
207
207
208
208
209
210
211
211
81
69
70
70
70
70
70
70
70
70
70
70
71
73
74
75
77
81
83
84
86
88
89
91
95
95
99
101
104
104
106
109
111
112
114
117
118
121
124
124
126
128
131
133
134
137
139
142
143
145
147
149
151
153
154
157
159
160
162
164
167
169
170
171
172
175
177
179
179
180
182
183
184
186
187
189
190
192
193
194
195
196
197
198
199
199
201
202
203
204
204
205
206
207
207
207
207
209
210
211
81
69
70
70
70
70
70
70
70
70
70
70
70
71
73
74
75
77
81
82
84
85
87
89
91
94
95
98
101
103
104
106
108
111
112
114
116
118
120
122
124
126
128
131
132
134
137
139
142
142
145
146
149
150
152
154
156
159
160
162
164
167
169
170
172
172
175
177
178
180
180
182
183
184
186
187
188
190
192
193
194
194
196
197
198
199
199
201
202
203
203
204
205
206
207
208
208
207
208
210
81
69
70
70
70
70
70
70
70
70
70
70
70
70
70
72
74
75
77
80
81
84
86
87
89
91
94
95
97
100
102
104
106
107
111
112
114
117
119
120
122
124
125
127
131
132
134
136
138
141
142
144
146
149
150
152
154
157
158
160
161
164
166
169
169
170
172
174
177
178
180
180
182
182
185
185
187
188
190
191
193
194
194
196
196
199
199
200
201
202
202
203
204
205
205
207
208
207
208
208
81
69
70
70
70
70
70
70
70
70
70
70
70
70
70
70
72
74
75
76
79
81
83
85
87
89
90
93
95
96
99
102
104
105
107
109
112
113
116
118
119
121
124
125
127
129
132
133
135
138
140
142
144
146
148
150
152
154
156
158
159
161
163
166
168
169
171
171
174
176
178
179
180
182
182
184
186
187
188
190
191
193
194
194
195
196
198
199
200
201
201
203
203
204
205
205
206
207
207
207
81
69
70
70
70
70
70
70
70
70
70
70
70
70
70
70
70
71
73
74
76
78
81
83
85
86
88
89
93
95
96
99
101
103
104
106
109
112
112
115
118
119
121
123
125
126
129
132
133
135
137
139
142
143
146
147
149
151
154
156
157
159
162
163
165
168
168
170
171
173
176
177
179
180
181
183
183
185
186
188
189
191
192
193
194
195
196
197
199
200
201
201
202
203
203
205
205
206
207
207
81
69
70
70
70
70
70
70
70
70
70
70
70
70
70
70
70
70
71
73
74
76
78
80
83
84
86
88
89
92
94
96
98
101
103
104
106
109
112
112
115
117
119
121
124
124
126
129
132
133
134
137
139
142
142
146
147
149
151
153
155
157
159
161
162
166
167
168
170
172
172
175
178
178
179
180
182
183
185
186
187
189
190
192
194
193
195
196
197
199
199
200
202
203
203
203
204
205
206
207
81
69
70
70
70
70
70
70
70
70
70
70
70
70
70
70
70
70
70
71
73
74
76
78
80
82
84
86
87
89
91
94
96
98
100
103
104
106
109
112
112
114
117
119
121
122
124
126
128
131
132
134
136
139
142
142
145
147
149
151
152
154
156
158
160
162
164
167
168
170
171
172
175
177
179
179
180
182
182
184
186
187
189
190
192
194
194
195
196
197
198
199
200
201
202
203
203
204
205
206
81
69
70
70
70
70
70
70
70
70
70
70
70
70
70
70
70
70
70
70
71
72
74
75
78
79
82
84
85
87
89
91
94
95
97
100
102
104
106
108
110
112
114
116
119
120
122
124
126
127
131
132
134
136
139
141
142
144
147
149
150
152
154
157
158
160
161
164
167
168
169
171
172
174
177
178
179
181
182
182
184
186
187
189
189
191
194
194
194
195
197
199
199
200
201
202
203
203
204
205
81
69
70
70
70
70
70
70
70
70
70
70
70
70
70
70
70
70
70
70
70
71
72
74
75
76
79
81
84
86
87
89
91
94
95
97
100
102
104
105
107
110
112
113
116
118
119
122
124
125
127
130
132
134
135
137
140
142
143
146
148
150
152
154
156
158
160
162
164
166
168
170
171
172
174
176
178
179
180
181
182
183
186
187
189
189
190
193
194
194
195
196
198
199
200
201
201
203
203
204
81
69
70
70
70
70
70
70
70
70
70
70
70
70
70
70
70
70
70
70
70
70
71
71
73
74
76
79
81
83
84
87
88
90
94
95
96
99
102
103
105
107
109
112
112
115
117
119
121
124
126
126
129
132
133
135
137
140
142
143
146
148
149
151
154
155
158
159
162
163
165
168
169
170
171
173
175
177
178
179
181
182
183
186
187
188
189
191
192
193
194
195
196
198
199
200
200
201
202
203
81
69
70
70
70
70
70
70
70
70
70
70
70
70
70
70
70
70
70
70
70
70
70
70
71
73
74
76
78
81
82
84
86
88
89
92
95
96
99
101
103
105
106
109
112
112
115
117
119
121
124
125
126
128
132
132
134
137
139
142
143
145
147
149
151
152
155
157
159
161
163
165
167
169
170
171
173
176
177
178
179
181
183
183
185
186
188
189
191
192
193
194
195
196
197
199
199
200
201
203
81
69
70
70
70
70
70
70
70
70
70
70
70
70
70
70
70
70
70
70
70
70
70
70
70
71
73
74
75
77
81
82
84
86
88
89
92
94
96
99
101
103
105
106
108
112
112
114
117
119
120
123
124
126
128
131
132
134
136
139
142
142
145
147
149
151
152
154
157
159
161
162
164
167
169
170
171
172
176
177
178
179
180
182
183
185
186
187
188
190
192
193
194
195
196
198
198
199
200
202
81
69
70
70
70
70
70
70
70
70
70
70
70
70
70
70
70
70
70
70
70
70
70
70
70
70
71
72
74
75
77
80
81
84
86
87
89
91
94
95
98
101
103
104
106
108
111
112
114
117
119
121
122
124
126
127
131
133
134
136
139
141
142
144
146
149
151
152
154
157
159
160
162
164
166
169
170
171
172
175
176
178
179
181
182
183
184
186
187
189
190
191
193
194
195
195
197
199
199
199
81
69
70
70
70
70
70
70
70
70
70
70
70
70
70
70
70
70
70
70
70
70
70
70
70
70
70
70
72
74
75
76
79
81
84
85
88
89
91
94
95
97
100
102
104
106
107
110
112
114
116
118
119
122
124
125
127
130
132
134
135
138
140
142
144
146
148
150
152
154
156
158
160
162
164
166
168
170
170
172
174
176
178
179
180
182
182
184
185
187
189
190
191
193
194
195
195
196
198
199
81
69
70
70
70
70
70
70
70
70
70
70
70
70
70
70
70
70
70
70
70
70
70
70
70
70
70
70
70
72
74
75
76
78
81
83
85
87
88
90
93
95
96
99
102
103
105
107
110
112
112
115
118
119
121
124
125
127
129
132
133
135
137
140
142
144
146
147
150
151
154
156
157
159
161
163
166
168
169
170
172
174
176
178
179
180
181
182
183
185
187
188
190
191
193
194
194
195
196
198
81
69
70
70
70
70
70
70
70
70
70
70
70
70
70
70
70
70
70
70
70
70
70
70
70
70
70
70
70
70
71
74
75
76
79
81
83
85
87
88
90
93
95
96
99
101
104
105
106
109
112
112
115
117
119
121
123
125
127
129
132
133
134
137
140
142
143
146
147
150
151
153
154
157
159
161
163
165
168
169
170
172
174
176
177
178
180
181
183
183
185
187
187
189
190
193
194
194
195
196
81
69
70
70
70
70
70
70
70
70
70
70
70
70
70
70
70
70
70
70
70
70
70
70
70
70
70
70
70
70
70
71
73
74
76
78
81
82
84
86
88
89
92
94
96
99
102
103
104
106
108
112
112
114
117
119
120
123
125
126
128
131
132
134
136
139
142
142
145
147
149
151
153
154
157
159
161
162
165
167
169
170
171
173
175
177
178
179
181
183
183
185
186
188
190
190
192
194
194
196
81
69
70
70
70
70
70
70
70
70
70
70
70
70
70
70
70
70
70
70
70
70
70
70
70
70
70
70
70
70
70
70
71
73
74
75
78
80
82
84
86
87
89
91
94
95
98
100
103
104
106
107
111
112
114
116
119
120
122
124
126
128
131
132
134
136
139
141
142
145
147
149
151
152
154
156
159
160
162
164
166
168
170
171
172
175
177
178
179
180
182
183
185
186
188
189
190
192
193
194
81
69
70
70
70
70
70
70
70
70
70
70
70
70
70
70
70
70
70
70
70
70
70
70
70
70
70
70
70
70
70
70
70
70
73
74
75
77
79
82
84
86
87
89
91
94
95
97
101
102
104
106
108
111
112
113
116
118
120
122
124
126
128
131
132
134
136
138
141
142
144
146
149
150
152
154
157
159
160
162
164
167
169
170
171
172
174
176
178
179
180
182
183
184
186
187
189
190
192
194
81
69
70
70
70
70
70
70
70
70
70
70
70
70
70
70
70
70
70
70
70
70
70
70
70
70
70
70
70
70
70
70
70
70
70
72
74
74
76
79
81
84
85
87
88
91
94
95
96
100
102
104
105
107
110
112
113
116
118
119
121
124
126
127
130
132
134
135
138
140
142
144
146
148
150
151
154
155
158
159
162
164
166
168
169
170
172
174
176
178
179
180
181
182
184
185
187
189
190
191
81
69
70
70
70
70
70
70
70
70
70
70
70
70
70
70
70
70
70
70
70
70
70
70
70
70
70
70
70
70
70
70
70
70
70
70
71
73
75
76
79
81
83
84
87
88
89
93
95
96
99
101
103
105
106
109
112
112
115
118
119
122
123
125
127
129
132
133
134
137
140
142
143
146
147
149
151
153
155
157
159
161
163
165
168
169
171
172
173
175
177
179
180
181
182
183
185
187
188
189
81
69
70
70
70
70
70
70
70
70
70
70
70
70
70
70
70
70
70
70
70
70
70
70
70
70
70
70
70
70
70
70
70
70
70
70
70
71
73
75
76
78
81
82
84
86
88
89
93
95
96
99
101
104
106
106
109
111
112
114
118
119
121
123
125
126
129
132
132
134
137
139
142
143
145
147
149
151
153
154
158
159
161
163
164
167
168
171
171
172
176
178
178
180
181
183
183
185
187
188
81
69
70
70
70
70
70
70
70
70
70
70
70
70
70
70
70
70
70
70
70
70
70
70
70
70
70
70
70
70
70
70
70
70
70
70
70
70
71
73
74
75
77
80
82
84
86
87
89
92
95
96
98
101
103
104
106
109
111
112
113
117
119
121
123
124
126
128
131
132
134
136
139
141
142
145
146
149
151
152
154
157
159
161
162
164
167
169
170
171
173
175
177
179
180
180
182
183
185
186
81
69
70
70
70
70
70
70
70
70
70
70
70
70
70
70
70
70
70
70
70
70
70
70
70
70
70
70
70
70
70
70
70
70
70
70
70
70
70
71
73
74
75
77
80
82
84
86
88
89
91
94
95
97
101
103
104
106
108
111
112
114
116
118
120
122
124
125
127
131
132
134
136
139
141
142
144
146
149
151
152
154
156
158
160
161
164
166
168
169
171
172
174
177
178
179
180
182
182
185
81
69
70
70
70
70
70
70
70
70
70
70
70
70
70
70
70
70
70
70
70
70
70
70
70
70
70
70
70
70
70
70
70
70
70
70
70
70
70
70
70
72
74
75
76
79
81
84
86
86
88
90
94
95
97
100
101
104
106
107
110
112
113
116
118
120
122
124
126
127
130
132
134
135
138
140
142
143
146
148
150
152
154
156
158
159
162
163
166
168
170
170
172
174
176
178
178
180
181
182
81
69
70
70
70
70
70
70
70
70
70
70
70
70
70
70
70
70
70
70
70
70
70
70
70
70
70
70
70
70
70
70
70
70
70
70
70
70
70
70
70
70
71
74
75
76
79
81
83
85
86
89
90
94
95
96
99
101
104
105
107
109
112
113
115
118
119
121
124
125
126
129
131
133
135
137
140
142
144
146
147
150
152
154
155
157
159
161
164
166
168
169
171
172
174
176
178
179
180
181
81
69
70
70
70
70
70
70
70
70
70
70
70
70
70
70
70
70
70
70
70
70
70
70
70
70
70
70
70
70
70
70
70
70
70
70
70
70
70
70
70
70
70
71
73
74
76
78
81
83
85
86
88
89
93
94
96
99
102
103
105
106
109
112
112
115
117
119
121
123
125
126
129
132
133
134
137
139
141
143
146
148
149
151
153
155
157
159
161
162
165
167
169
170
172
173
176
177
178
180
81
69
70
70
70
70
70
70
70
70
70
70
70
70
70
70
70
70
70
70
70
70
70
70
70
70
70
70
70
70
70
70
70
70
70
70
70
70
70
70
70
70
70
70
71
73
74
76
78
81
83
84
86
88
89
92
94
96
99
101
103
104
106
109
111
112
114
117
119
120
123
124
126
128
132
132
134
136
139
142
143
145
147
149
150
152
154
157
159
161
162
165
166
169
170
170
172
175
178
178
81
69
70
70
70
70
70
70
70
70
70
70
70
70
70
70
70
70
70
70
70
70
70
70
70
70
70
70
70
70
70
70
70
70
70
70
70
70
70
70
70
70
70
70
70
71
72
74
75
77
80
82
84
86
87
89
91
94
95
98
101
103
104
106
108
111
112
114
116
118
121
122
124
125
128
131
132
134
136
139
141
142
144
147
149
151
152
154
157
158
160
162
164
167
169
170
170
172
175
178
81
69
70
70
70
70
70
70
70
70
70
70
70
70
70
70
70
70
70
70
70
70
70
70
70
70
70
70
70
70
70
70
70
70
70
70
70
70
70
70
70
70
70
70
70
70
70
72
74
75
76
79
81
84
86
88
89
91
94
95
97
100
102
104
105
107
110
112
113
116
118
120
122
124
125
127
130
132
134
136
138
141
142
144
147
148
150
152
154
156
159
160
162
164
166
169
170
171
172
174
81
69
70
70
70
70
70
70
70
70
70
70
70
70
70
70
70
70
70
70
70
70
70
70
70
70
70
70
70
70
70
70
70
70
70
70
70
70
70
70
70
70
70
70
70
70
70
71
72
74
74
76
78
81
83
86
87
89
90
94
95
96
99
102
103
105
107
109
112
112
116
119
119
122
124
125
126
129
132
133
135
138
141
142
144
146
148
150
152
154
156
158
160
161
163
166
168
169
171
172
81
69
70
70
70
70
70
70
70
70
70
70
70
70
70
70
70
70
70
70
70
70
70
70
70
70
70
70
70
70
70
70
70
70
70
70
70
70
70
70
70
70
70
70
70
70
70
70
71
71
74
74
76
78
81
82
84
86
88
89
93
95
96
99
101
103
104
106
109
112
112
116
118
119
122
123
125
127
129
132
133
134
137
140
142
143
146
148
150
151
153
156
158
159
161
163
164
167
169
170
81
69
70
70
70
70
70
70
70
70
70
70
70
70
70
70
70
70
70
70
70
70
70
70
70
70
70
70
70
70
70
70
70
70
70
70
70
70
70
70
70
70
70
70
70
70
70
70
70
70
71
74
74
76
78
81
82
84
86
88
89
92
94
96
99
101
103
105
106
109
112
112
114
117
119
121
123
124
126
128
131
132
134
136
139
142
142
146
147
149
151
153
154
157
159
161
162
165
167
168
81
69
70
70
70
70
70
70
70
70
70
70
70
70
70
70
70
70
70
70
70
70
70
70
70
70
70
70
70
70
70
70
70
70
70
70
70
70
70
70
70
70
70
70
70
70
70
70
70
70
70
71
73
74
76
78
81
82
84
86
88
89
91
94
95
98
101
103
104
106
109
111
112
114
116
119
121
123
124
126
128
131
133
134
137
139
142
143
145
147
149
151
152
154
157
159
161
162
164
166
80
69
69
69
69
69
69
69
69
69
69
69
69
69
69
69
69
69
69
69
69
69
69
69
69
69
69
69
69
69
69
69
69
69
69
69
69
69
69
69
69
69
69
69
69
69
69
69
69
69
69
69
70
71
73
74
76
79
81
83
85
86
89
91
94
95
97
100
102
104
105
108
110
112
113
116
118
119
122
124
126
127
130
132
134
135
138
141
142
144
146
148
151
151
154
157
158
160
161
164
88
78
79
79
79
79
79
79
79
79
79
79
79
79
79
79
79
79
79
79
79
79
79
79
79
79
79
79
79
79
79
79
79
79
79
79
79
79
79
79
79
79
79
79
79
79
79
79
79
79
79
79
79
80
81
82
83
85
88
90
92
93
94
97
98
101
102
104
106
109
110
112
114
115
116
118
120
122
124
126
128
129
131
134
135
137
139
141
143
145
146
148
150
152
154
155
157
159
161
162
