P2
# Created by GIMP version 2.10.2 PNM plug-in
15 15
255
189
197
203
208
211
212
208
198
188
176
163
148
134
118
102
178
187
195
202
207
211
212
209
200
190
178
165
151
136
121
165
176
186
194
201
206
210
212
210
202
192
180
167
154
139
150
163
174
184
193
200
205
209
212
211
204
194
183
170
156
134
148
161
172
182
191
199
204
208
212
212
206
196
185
172
118
132
145
158
170
181
190
197
203
208
212
212
207
198
187
102
116
129
143
156
168
179
188
196
202
207
211
213
209
200
86
99
113
126
140
153
166
177
186
195
201
206
210
213
210
73
83
97
111
124
137
151
164
175
185
193
200
205
210
212
70
71
81
94
108
121
135
148
161
173
183
192
199
204
209
70
70
71
79
92
105
119
132
146
159
171
181
190
198
204
70
70
70
70
77
89
103
116
130
143
156
169
180
189
197
70
70
70
70
70
75
87
101
114
128
141
154
167
178
187
70
70
70
70
70
70
73
84
98
112
125
139
152
165
176
70
70
70
70
70
70
70
72
82
96
109
123
136
150
162
