P2
# Created by GIMP version 2.10.2 PNM plug-in
11 11
255
189
199
206
211
211
201
186
169
150
130
109
173
186
197
205
210
212
203
189
173
154
134
154
170
184
195
204
210
212
205
192
176
157
132
150
167
182
194
202
209
212
207
195
179
111
129
147
165
180
191
201
208
212
209
197
89
107
125
144
161
177
189
200
207
211
210
72
85
104
122
140
158
174
187
198
205
211
70
71
82
100
119
137
155
171
185
196
204
70
70
70
79
97
116
133
152
169
183
194
70
70
70
70
76
93
112
130
149
166
180
70
70
70
70
70
74
90
109
127
145
163
