P2
# CREATOR: GIMP PNM Filter Version 1.1
10 10
255
189
201
208
213
208
193
176
156
133
109
171
187
198
207
212
211
197
181
161
138
149
169
184
196
206
212
212
200
184
164
126
147
166
182
194
204
211
213
203
186
102
122
142
162
179
192
203
210
213
205
79
98
118
139
159
177
190
201
208
213
71
76
94
115
134
155
173
187
199
208
71
70
73
91
111
131
151
170
185
198
71
70
70
71
86
107
127
147
167
184
72
71
71
71
72
83
103
123
143
164
