P2
# Created by GIMP version 2.10.2 PNM plug-in
14 14
255
189
197
204
209
212
211
204
194
181
167
153
137
120
103
177
187
196
202
208
212
212
206
195
184
170
155
140
123
163
175
186
194
201
207
211
212
207
198
186
173
158
143
147
160
173
184
193
200
206
210
212
209
199
188
175
161
129
144
158
171
182
191
199
205
210
212
210
201
191
178
112
127
141
155
169
180
190
198
204
209
212
211
203
193
95
110
124
138
152
166
178
188
196
203
208
212
212
205
78
92
107
121
136
150
164
176
186
195
202
207
211
212
70
76
89
104
118
133
147
161
174
184
194
201
206
210
70
70
74
87
102
116
131
145
159
172
182
192
199
205
70
70
70
73
85
99
114
128
142
156
170
181
190
198
70
70
70
70
72
82
96
111
125
139
154
167
179
189
70
70
70
70
70
71
79
93
108
123
137
151
165
177
70
70
70
70
70
70
70
77
91
106
120
134
149
162
