P2
# Created by GIMP version 2.10.2 PNM plug-in
20 20
255
189
195
200
204
208
210
213
212
208
201
193
185
176
165
155
145
133
122
109
97
181
188
194
199
204
207
210
213
212
209
202
195
187
177
167
157
147
135
124
112
172
180
187
193
198
203
206
209
212
212
210
204
196
188
179
169
159
149
137
126
162
171
179
185
192
197
202
206
209
212
213
211
205
197
190
181
171
161
150
139
150
160
169
177
184
191
197
201
205
208
211
213
211
206
199
191
183
173
163
152
138
148
158
167
176
183
190
196
201
205
208
211
213
212
207
200
193
184
175
165
126
136
147
156
166
174
182
188
195
200
204
207
210
212
212
209
201
194
186
177
115
124
134
145
154
164
173
180
187
194
199
203
207
210
212
213
209
203
195
188
103
113
122
133
143
153
162
171
179
186
192
198
202
206
209
212
213
210
204
197
90
100
111
121
131
141
151
161
170
178
185
191
197
202
206
209
212
213
211
206
79
88
98
109
119
129
139
149
159
168
176
183
190
196
201
205
208
211
213
212
71
76
86
96
107
117
127
137
147
157
166
175
182
189
195
200
204
207
211
213
70
70
75
84
95
105
115
125
135
146
155
165
173
181
188
194
199
204
207
210
70
70
70
74
83
93
103
113
123
133
144
153
163
172
179
187
193
198
203
206
70
70
70
70
72
81
91
101
111
122
131
142
152
161
170
178
185
192
197
202
70
70
70
70
70
72
79
89
100
110
120
130
140
150
159
169
177
184
191
196
70
70
70
70
70
70
71
77
87
97
108
118
128
138
148
158
167
175
182
190
70
70
70
70
70
70
70
70
76
85
95
106
116
126
136
146
156
166
174
181
70
70
70
70
70
70
70
70
70
74
83
93
104
114
124
134
144
154
164
172
70
70
70
70
70
70
70
70
70
70
73
82
92
102
112
122
132
143
152
162
