P2
# CREATOR: GIMP PNM Filter Version 1.1
25 25
255
190
195
199
203
206
208
211
213
213
212
208
202
196
190
183
176
168
160
151
142
133
124
114
105
95
183
189
194
198
202
205
208
211
213
213
212
209
204
198
191
185
177
169
162
153
144
135
126
116
106
176
182
188
193
197
201
204
208
210
212
213
213
210
204
199
192
186
179
171
163
155
146
136
128
118
169
175
181
187
192
197
201
204
207
209
212
213
213
211
206
200
194
188
181
172
164
156
147
138
129
160
168
174
180
186
192
196
200
204
206
209
212
213
213
211
207
201
195
189
182
175
166
158
149
140
152
159
166
173
179
185
191
195
199
202
206
208
211
213
213
212
208
202
196
190
183
176
167
159
150
142
149
157
165
173
178
184
189
195
199
202
206
208
211
212
213
212
209
203
197
191
184
177
169
161
132
140
148
156
163
171
177
183
188
193
197
202
205
207
210
212
213
213
210
205
199
192
186
179
170
123
130
138
146
154
162
169
176
181
187
193
197
201
204
207
209
212
213
213
210
206
200
194
187
179
114
121
129
137
145
152
161
168
175
181
186
192
196
200
204
206
209
211
213
213
211
206
200
194
188
104
111
119
127
136
144
152
159
166
174
180
185
191
195
199
203
206
209
211
213
213
212
208
202
196
95
101
110
118
126
133
142
150
158
166
173
179
184
190
195
198
203
206
208
211
213
213
212
209
203
86
91
99
108
116
125
132
141
149
156
164
171
178
183
189
194
198
202
205
208
210
213
213
212
209
77
82
90
98
107
115
123
131
139
148
155
162
170
176
182
188
193
197
201
205
207
210
212
213
213
73
74
81
89
97
105
113
121
129
137
145
154
161
169
175
181
187
192
197
200
204
207
209
212
213
73
70
72
79
87
95
103
112
120
128
136
144
152
159
168
174
180
186
191
195
200
203
206
209
211
73
70
70
72
77
85
94
102
111
118
126
135
142
151
158
166
173
179
185
190
195
199
203
206
208
73
70
70
70
71
76
84
92
101
109
117
125
132
141
149
157
165
172
178
184
190
194
199
202
205
73
70
70
70
70
71
75
83
91
99
107
115
123
131
140
147
155
163
170
176
182
188
194
197
202
73
70
70
70
70
70
71
74
82
89
98
106
114
122
130
138
147
154
162
169
176
182
187
192
196
73
70
70
70
70
70
70
70
73
80
88
95
105
112
121
128
136
145
153
161
169
175
180
186
192
73
70
70
70
70
70
70
70
69
72
78
86
94
102
111
119
127
135
143
151
159
167
174
179
185
73
70
70
70
70
70
70
70
70
70
71
77
84
93
101
110
118
126
133
141
150
157
165
173
178
73
70
70
70
70
70
70
70
70
70
70
71
76
83
91
99
108
116
124
132
140
148
156
164
171
75
73
73
73
73
73
73
73
73
73
73
73
73
76
84
91
100
108
116
123
131
139
148
155
162
