P2
# CREATOR: GIMP PNM Filter Version 1.1
50 50
255
189
193
195
198
199
201
203
204
206
207
208
210
211
212
213
213
214
213
212
210
208
205
202
200
196
193
190
187
183
180
176
172
167
164
160
155
150
147
143
137
132
128
123
119
114
109
104
100
94
90
186
190
193
194
197
199
201
202
204
205
207
208
209
211
211
213
213
213
214
212
211
209
206
202
200
197
193
191
188
184
180
176
173
168
164
160
156
151
147
144
138
133
129
125
120
115
110
105
100
96
182
186
189
192
195
196
199
201
203
204
205
207
208
209
211
212
212
214
213
214
213
211
209
207
203
200
197
195
191
189
185
181
177
173
169
165
161
156
152
148
144
140
134
129
125
120
116
110
106
101
180
183
186
188
191
194
195
198
200
202
203
205
206
208
209
210
211
212
213
213
213
212
211
209
207
204
201
198
195
191
189
185
181
178
174
170
165
162
158
153
148
145
141
135
129
127
121
116
111
106
177
180
182
185
188
191
193
195
198
199
201
203
205
206
207
209
210
211
212
213
213
213
213
212
210
208
205
201
198
196
192
189
186
182
178
174
171
166
162
159
154
149
145
141
136
130
127
122
118
113
173
177
180
182
184
187
191
194
195
197
199
202
203
205
206
207
208
210
211
212
214
213
213
213
212
210
208
205
202
200
196
193
190
187
183
179
176
172
167
164
159
154
150
146
142
137
131
128
123
119
169
172
176
179
181
185
187
190
193
195
197
199
201
202
204
206
207
208
209
210
211
213
213
213
214
212
210
209
206
203
200
196
193
191
188
184
180
176
173
168
164
160
155
151
147
143
137
132
129
124
165
169
172
175
178
181
184
187
189
192
194
196
198
201
202
204
206
207
208
209
211
212
213
214
214
214
213
211
209
206
203
200
197
194
191
188
184
181
177
173
168
164
161
156
151
148
144
139
134
129
161
164
168
171
174
178
181
183
186
189
192
194
196
198
200
202
204
205
207
208
209
210
211
212
213
214
213
213
212
209
207
204
201
198
195
192
189
185
181
177
174
169
165
162
157
152
148
144
140
134
156
159
164
168
170
174
178
180
182
186
188
191
194
195
198
200
201
203
205
206
208
208
210
211
212
213
213
213
213
212
210
208
204
201
199
195
192
189
186
182
178
174
170
166
163
158
154
149
146
141
152
155
159
163
167
170
173
178
179
182
185
188
191
193
195
197
199
202
203
204
206
207
208
210
210
212
213
213
213
213
212
210
208
205
202
199
196
192
190
187
183
178
175
171
167
163
159
154
150
146
148
150
154
158
162
166
170
172
176
179
182
185
188
190
193
194
197
199
201
203
204
206
207
208
210
211
212
213
213
213
214
212
210
209
205
202
199
196
193
190
187
184
180
176
172
167
164
160
154
151
144
145
150
154
158
162
165
169
172
176
178
181
184
187
190
192
195
196
199
201
202
204
206
207
208
209
211
212
213
214
213
213
213
211
209
206
203
200
197
194
191
188
184
180
177
173
168
164
161
156
138
141
145
149
153
157
161
164
169
171
175
178
180
184
186
189
192
195
196
199
201
202
204
205
207
208
209
211
211
212
214
213
213
213
211
209
207
203
200
197
195
192
188
185
181
177
174
169
164
161
134
135
140
144
148
152
156
160
164
169
171
174
178
180
183
186
188
191
194
195
198
200
201
203
205
207
208
208
210
211
212
213
213
213
213
211
209
207
203
201
198
195
192
189
186
181
178
174
170
165
129
131
135
139
144
148
152
155
159
163
167
171
174
177
180
182
185
188
191
193
196
197
200
202
203
205
207
207
209
210
211
212
213
213
214
213
212
210
208
205
202
198
196
192
189
186
182
179
175
171
125
127
130
134
138
142
147
151
154
159
162
167
170
173
177
179
182
185
188
190
193
195
198
199
201
202
204
206
208
208
210
211
212
213
213
213
213
212
210
208
205
202
199
196
193
190
187
183
179
175
121
122
126
129
133
138
142
146
150
154
157
162
166
169
172
176
179
181
184
187
190
192
194
196
199
200
202
204
206
207
208
209
211
211
213
213
213
214
213
210
209
206
203
199
196
193
191
188
184
180
116
117
122
124
128
133
137
142
145
149
153
157
161
164
169
172
175
178
181
184
187
190
192
194
197
199
201
203
204
206
207
208
209
211
212
213
214
214
213
213
211
209
207
203
200
198
194
192
188
185
111
112
116
120
124
127
132
136
140
144
149
152
156
159
164
169
171
175
178
180
183
186
188
192
194
196
199
200
202
203
205
206
207
208
211
212
212
213
213
213
213
211
209
207
203
202
198
195
191
189
107
106
111
116
119
124
127
132
135
140
144
148
152
155
159
163
168
170
174
177
181
183
185
188
191
194
195
198
200
202
203
205
206
207
208
210
211
212
213
213
213
213
212
210
208
205
201
198
195
192
103
102
106
110
115
119
123
127
131
134
139
143
147
151
155
159
162
167
170
173
177
180
182
184
187
191
193
195
197
200
201
203
205
206
207
209
210
211
212
213
214
213
213
212
210
208
205
202
199
195
97
97
102
106
109
114
118
122
126
129
134
138
142
147
150
154
158
162
166
170
172
176
179
182
185
187
189
193
194
197
199
201
203
204
206
207
208
209
211
211
213
213
213
213
213
210
208
205
202
200
93
92
96
101
105
109
113
117
121
125
129
134
137
142
145
149
153
157
161
165
169
172
176
178
181
183
187
190
192
194
196
198
201
202
204
206
207
208
209
211
212
212
214
213
213
213
211
209
206
203
89
87
92
96
100
104
108
112
116
121
124
128
133
137
141
144
149
153
157
161
164
169
171
175
179
181
184
186
189
192
194
196
198
201
202
204
205
207
208
209
211
211
212
213
213
213
213
211
209
206
85
83
86
91
95
100
104
108
112
116
120
124
127
132
135
140
144
149
152
156
159
164
168
171
174
178
181
182
186
189
191
194
195
198
200
202
203
205
207
207
208
210
211
212
213
213
213
213
211
209
79
78
82
86
90
94
99
103
107
111
115
119
123
127
132
134
139
144
147
151
155
159
163
167
170
173
177
180
182
185
188
191
193
195
197
199
202
203
205
207
207
208
210
211
212
213
213
214
213
212
76
73
77
82
86
89
94
98
102
106
110
114
119
122
126
131
134
138
143
147
151
154
158
162
167
169
173
176
180
182
185
187
190
193
195
197
199
201
203
204
206
207
208
210
211
212
213
213
213
213
76
70
74
77
81
85
89
93
97
101
106
109
114
118
121
126
129
134
137
142
146
150
154
157
162
166
169
172
176
179
182
184
187
190
193
194
196
199
201
202
204
206
207
208
210
210
212
213
213
213
76
69
70
73
76
80
84
88
92
96
101
105
109
112
117
121
124
129
132
137
141
145
149
152
157
161
164
169
171
175
178
180
183
186
189
192
195
196
198
200
203
203
206
207
208
209
211
212
213
214
76
69
70
70
72
75
79
84
86
91
96
100
104
108
112
116
120
124
128
132
136
141
144
149
152
156
160
164
168
170
174
179
180
183
186
189
191
194
196
198
200
202
203
205
206
207
209
210
211
212
76
69
70
70
70
71
75
79
83
86
91
95
99
103
107
112
115
119
123
127
132
135
139
144
148
152
156
159
164
167
170
174
177
180
182
185
188
191
193
195
198
200
202
203
205
206
207
208
210
211
76
69
70
70
70
70
71
74
78
82
86
90
94
99
103
106
110
114
119
123
127
131
134
139
143
147
151
155
159
163
167
170
173
177
180
182
185
187
191
193
195
197
199
201
203
204
206
208
208
210
76
69
70
70
70
70
70
71
74
76
81
85
89
93
98
102
106
109
114
118
121
126
130
134
138
142
146
150
154
158
162
166
169
172
176
179
182
184
187
190
193
195
196
199
201
202
204
206
207
208
76
69
70
70
70
70
70
70
70
73
76
81
85
88
92
96
101
105
109
112
117
122
124
129
133
137
142
145
149
153
157
162
165
168
172
175
179
180
184
186
190
192
194
196
199
201
203
204
205
207
76
69
70
70
70
70
70
70
70
70
73
76
80
84
87
91
96
100
104
109
112
117
120
124
128
132
136
141
145
149
152
157
160
164
169
171
174
178
181
183
186
189
192
194
196
198
200
202
204
205
76
69
70
70
70
70
70
70
70
70
70
72
75
79
84
87
91
95
99
103
107
112
116
119
124
127
132
136
140
144
148
152
156
159
164
168
171
174
177
180
182
186
188
191
194
195
198
200
202
203
76
69
70
70
70
70
70
70
70
70
70
70
71
74
78
83
86
90
94
99
103
106
110
114
119
123
127
131
135
139
143
147
151
155
159
163
166
170
173
177
180
182
184
188
191
193
196
198
199
202
76
69
70
70
70
70
70
70
70
70
70
70
70
71
74
77
81
86
89
94
98
102
106
110
114
118
122
126
130
134
138
142
147
150
154
158
162
166
170
172
176
180
182
184
187
190
193
195
197
199
76
69
70
70
70
70
70
70
70
70
70
70
70
70
70
74
76
81
85
88
93
97
101
105
109
113
117
122
125
129
133
137
142
146
149
154
157
162
165
169
172
175
179
181
184
187
190
193
194
196
76
69
70
70
70
70
70
70
70
70
70
70
70
70
70
70
73
76
80
84
87
91
96
101
104
109
112
117
121
124
128
133
137
141
145
149
153
157
160
165
169
171
176
178
181
184
186
188
192
194
76
69
70
70
70
70
70
70
70
70
70
70
70
70
70
70
70
72
75
79
84
87
91
95
101
104
108
112
116
120
124
128
132
136
140
144
149
152
157
160
164
168
170
174
178
180
183
186
189
192
76
69
70
70
70
70
70
70
70
70
70
70
70
70
70
70
70
70
71
74
79
83
86
90
94
99
104
107
111
115
119
123
127
131
135
139
144
147
151
155
159
163
167
171
173
177
180
182
185
188
76
69
70
70
70
70
70
70
70
70
70
70
70
70
70
70
70
70
70
71
74
78
82
86
89
94
98
102
106
111
114
119
122
126
130
134
139
143
147
151
154
158
162
166
170
173
176
180
182
185
76
69
70
70
70
70
70
70
70
70
70
70
70
70
70
70
70
70
70
70
70
73
77
81
85
89
93
97
101
105
109
114
118
122
126
129
134
138
142
146
150
154
158
162
166
169
172
176
179
181
76
69
70
70
70
70
70
70
70
70
70
70
70
70
70
70
70
70
70
70
70
70
72
76
81
85
88
92
96
101
105
109
113
117
121
124
129
133
137
142
146
149
153
157
161
165
169
171
176
179
76
69
70
70
70
70
70
70
70
70
70
70
70
70
70
70
70
70
70
70
70
70
70
73
75
79
84
87
91
96
100
104
108
112
116
121
124
128
132
137
140
144
149
152
157
160
164
168
170
175
76
69
70
70
70
70
70
70
70
70
70
70
70
70
70
70
70
70
70
70
70
70
70
70
72
75
79
83
86
91
95
99
104
107
111
116
119
123
127
132
135
139
144
148
152
155
159
164
167
170
76
69
69
69
69
69
69
69
69
69
69
69
69
69
69
69
69
69
69
69
69
69
69
69
69
71
74
78
82
86
89
94
99
103
106
111
114
119
123
126
131
134
139
143
147
151
154
159
162
167
80
74
75
75
75
75
75
75
75
75
75
75
75
75
75
75
75
75
75
75
75
75
75
75
75
75
75
78
81
85
89
93
97
101
106
109
112
116
120
124
128
131
135
139
144
148
151
155
159
162
