P2
# CREATOR: GIMP PNM Filter Version 1.1
10 7
255
137
148
158
164
164
158
148
134
121
108
150
157
159
157
150
139
126
111
96
84
155
153
149
140
129
114
100
85
71
61
147
140
129
116
101
87
73
61
50
44
129
117
103
88
73
61
50
44
39
40
105
89
75
61
48
41
38
38
41
43
80
64
50
38
34
36
38
42
44
46
