P2
# CREATOR: GIMP PNM Filter Version 1.1
100 67
255
128
129
131
132
133
133
134
136
136
137
139
140
142
142
143
145
147
147
148
150
151
152
153
153
155
156
157
158
159
161
161
162
163
164
165
166
166
167
168
169
168
167
168
168
167
167
167
167
167
166
165
166
165
164
164
163
162
162
160
160
159
157
157
155
154
154
153
151
150
150
149
146
145
143
142
141
140
138
136
136
134
133
131
130
128
127
126
124
123
122
121
120
117
116
116
115
114
112
111
111
130
131
132
133
133
134
136
137
137
139
139
141
143
142
144
146
148
148
150
150
150
152
153
154
156
156
157
159
160
161
162
162
163
164
166
166
167
167
167
167
167
167
167
167
167
167
167
166
166
165
164
164
163
163
162
161
161
160
159
158
157
156
154
154
154
152
151
149
150
146
145
144
143
141
141
138
138
137
135
134
131
130
130
128
126
126
124
123
121
121
119
117
115
114
114
113
111
111
110
108
131
132
133
134
135
136
137
137
139
140
141
143
142
144
146
147
147
148
150
151
152
152
153
155
156
157
158
159
160
162
162
162
164
165
165
166
167
167
167
166
166
167
167
166
166
166
165
165
165
164
163
162
162
162
160
160
160
158
157
157
155
155
154
153
151
150
149
148
147
144
144
143
141
140
138
137
136
135
133
131
130
129
127
126
125
123
122
120
119
118
117
115
114
113
112
111
110
108
107
107
133
133
134
135
136
137
137
139
140
140
142
142
144
145
146
147
148
150
151
151
152
153
155
156
156
158
158
159
161
161
162
163
164
164
166
166
166
166
165
165
165
166
166
166
165
164
164
164
164
163
163
161
160
160
159
159
158
157
156
155
154
153
152
151
150
148
147
147
144
143
143
141
140
138
137
136
134
133
131
129
128
127
125
124
122
122
120
119
117
116
114
114
112
110
110
110
108
107
105
105
134
134
136
136
137
138
139
140
141
142
143
144
145
146
147
148
149
150
151
152
153
155
155
156
158
158
159
160
161
161
162
163
164
165
165
165
164
164
165
165
165
165
166
165
163
163
162
163
163
162
162
159
160
160
157
157
156
155
155
154
153
152
150
150
148
147
146
144
144
141
141
139
138
137
135
133
132
131
129
128
126
124
124
122
120
119
118
117
115
114
113
112
109
108
108
107
106
105
104
103
135
137
136
137
138
139
140
141
142
143
144
145
146
147
148
149
150
151
152
153
155
155
157
157
158
158
160
162
161
162
163
164
165
164
164
164
164
164
165
164
164
164
163
162
162
163
162
162
163
162
159
159
158
157
157
155
155
154
153
151
151
150
149
147
147
145
144
142
140
140
138
137
136
135
134
132
129
128
127
126
124
123
122
120
119
117
117
114
113
112
110
109
108
106
105
105
105
103
102
101
136
136
138
138
140
140
141
142
143
145
145
146
147
148
149
150
151
152
153
154
155
156
157
157
159
159
161
161
162
162
163
164
164
164
164
164
164
164
163
164
163
163
162
162
161
162
161
161
160
159
158
157
157
156
154
154
154
152
151
151
150
149
147
146
145
144
142
140
139
138
136
135
133
132
130
129
128
127
125
124
122
121
119
117
116
114
113
111
110
109
107
107
106
103
103
102
101
100
100
97
137
138
139
140
141
141
143
143
144
145
146
147
148
149
150
151
152
153
154
155
155
157
158
158
159
160
161
161
162
162
163
163
164
163
162
162
163
162
162
163
162
162
161
161
161
159
160
159
159
158
157
156
155
154
154
153
151
150
150
149
147
146
146
144
143
141
140
138
137
135
134
133
131
130
128
127
126
124
122
121
120
118
117
115
114
112
111
110
108
107
106
105
104
102
101
99
98
97
97
96
139
140
141
141
142
142
144
145
145
146
147
148
149
150
151
152
153
154
155
156
157
158
157
159
160
161
161
162
162
162
163
162
162
162
162
162
161
161
161
161
161
161
160
159
160
159
157
157
157
156
156
154
154
154
153
150
149
149
148
147
146
145
143
141
140
139
137
136
134
133
132
131
130
127
126
125
125
122
120
119
118
116
114
113
111
111
109
107
106
104
103
102
101
100
98
98
96
96
94
94
141
141
142
142
143
144
145
146
147
147
148
149
151
151
152
153
154
154
156
157
158
158
158
160
161
162
161
162
161
162
162
162
162
162
161
160
160
161
161
161
160
159
159
158
156
157
156
155
155
155
153
153
153
152
150
149
148
147
146
145
143
142
140
139
138
137
135
134
133
132
130
128
126
125
124
123
121
120
118
117
115
115
112
110
109
107
106
105
103
103
100
100
98
97
96
95
94
93
92
91
141
142
142
144
145
146
146
146
148
149
150
150
151
153
153
154
154
156
157
157
158
158
160
161
160
161
161
161
162
161
161
161
160
161
160
160
160
160
160
159
159
158
157
156
156
156
155
154
153
153
152
150
150
150
148
147
146
145
143
141
141
140
138
137
136
135
134
132
131
129
128
125
124
123
121
120
118
116
115
115
113
111
109
107
106
106
104
103
101
100
98
97
96
95
94
93
91
91
90
89
142
144
145
146
146
146
147
148
149
150
150
151
153
153
154
154
156
157
157
157
158
159
159
160
160
160
160
160
161
161
161
160
160
160
160
158
158
159
158
158
158
158
156
156
155
154
153
153
152
151
149
149
148
147
146
145
144
141
141
140
139
138
137
135
134
132
131
130
128
126
125
124
122
121
119
117
115
114
113
111
110
108
106
105
104
103
102
100
98
97
96
94
94
93
91
91
89
88
87
86
145
146
146
146
147
148
149
149
150
151
152
153
153
154
155
155
157
157
157
158
159
158
158
159
159
159
160
160
160
159
159
159
159
158
158
158
157
158
158
158
156
156
155
153
152
153
152
151
150
149
148
147
146
145
145
143
141
141
140
139
136
135
134
133
131
130
128
127
125
124
121
121
120
118
117
115
113
111
110
108
107
106
104
103
101
100
99
98
96
94
94
92
91
90
89
88
87
85
84
84
146
147
147
148
149
149
150
150
151
151
153
153
154
155
156
157
157
157
158
158
158
158
158
158
158
160
159
159
159
157
158
158
157
157
157
157
156
157
156
155
155
154
153
152
152
151
150
148
147
146
146
145
144
144
142
140
140
139
137
135
133
133
131
130
128
127
126
125
123
121
120
119
117
114
114
112
110
108
107
106
105
103
101
101
99
97
96
95
94
92
90
90
89
87
86
85
84
84
83
82
148
149
149
149
150
151
151
152
152
154
154
155
155
157
157
157
157
157
158
158
158
158
158
158
159
159
159
158
157
157
157
157
157
157
156
156
155
155
155
154
153
152
152
152
150
148
147
146
146
145
144
143
142
141
140
139
138
136
134
133
131
130
129
127
126
125
123
122
120
118
117
116
114
113
111
108
108
106
105
104
102
101
99
97
97
95
93
92
91
90
87
87
86
84
83
82
82
81
80
80
149
149
150
151
151
152
152
154
154
155
155
156
156
157
157
157
158
158
158
158
158
158
158
159
158
157
157
157
157
157
157
157
156
154
155
154
154
152
152
152
152
152
150
149
147
147
146
145
144
143
142
142
140
138
138
137
134
132
132
131
129
128
126
125
124
122
121
120
118
116
115
113
112
111
108
107
105
103
102
101
99
98
96
95
93
92
91
89
88
88
86
85
84
83
80
80
80
79
78
77
151
151
151
152
152
153
154
155
155
156
156
157
156
157
157
157
157
158
157
158
158
158
157
157
157
157
157
156
156
156
156
155
154
154
154
154
152
152
151
151
150
149
148
147
147
145
143
143
142
140
140
139
137
136
135
133
132
131
129
129
127
125
124
123
121
120
118
116
114
114
112
111
109
107
106
103
102
102
100
98
96
95
93
92
91
89
88
86
85
84
83
82
81
80
79
77
77
76
76
74
152
153
153
153
154
155
155
156
156
157
156
156
156
156
157
157
156
157
157
157
157
157
156
156
156
155
156
156
155
155
154
155
154
153
152
152
151
150
150
149
148
147
146
146
143
143
142
141
140
138
138
136
135
133
132
130
130
128
128
126
124
123
121
120
118
117
114
113
112
111
109
108
106
103
103
102
100
98
97
95
95
93
91
89
87
87
85
84
83
82
81
80
78
78
77
76
74
73
72
72
154
154
155
154
156
156
157
156
156
156
156
157
157
156
156
157
156
156
156
156
156
156
155
155
156
156
155
155
155
154
153
153
152
151
151
150
149
149
148
147
146
145
144
143
142
141
141
138
138
135
134
133
132
131
130
128
127
126
124
123
121
120
118
117
115
114
112
110
110
107
107
105
103
101
101
98
97
95
95
93
92
90
89
87
84
84
82
81
81
80
78
77
76
74
74
73
73
71
70
69
155
155
156
156
156
156
156
156
156
157
157
156
156
156
156
156
156
156
156
156
155
155
155
154
155
154
154
153
153
152
151
150
150
150
149
148
147
146
146
145
143
142
142
141
140
139
138
136
134
133
132
130
130
128
127
126
124
123
122
120
118
117
116
114
113
111
110
108
106
105
104
102
101
98
97
95
94
93
91
90
88
88
86
85
82
81
80
79
78
76
75
73
73
73
71
70
70
69
68
67
155
155
155
156
156
156
156
156
157
156
156
156
156
156
156
156
156
155
155
155
155
155
153
154
154
153
152
152
151
151
150
150
149
148
147
147
145
145
144
142
142
141
140
139
138
137
134
133
133
131
130
129
128
126
124
123
122
121
119
117
116
115
113
111
109
108
107
105
103
102
101
98
97
95
94
93
90
89
88
87
86
84
84
82
81
79
78
76
75
73
73
72
71
70
69
68
67
66
65
65
155
155
156
156
156
156
156
156
156
156
156
156
156
156
156
156
155
155
154
154
154
153
153
153
152
152
151
150
150
150
149
149
148
147
146
144
143
142
142
141
140
139
137
137
135
134
133
132
130
129
128
127
124
123
122
120
119
117
117
115
113
111
110
108
107
105
104
102
100
100
97
95
94
93
92
90
88
87
86
84
82
81
80
79
78
76
74
73
73
72
70
69
69
67
67
66
65
64
63
63
156
156
156
155
155
156
155
155
155
155
155
155
155
155
154
154
153
153
153
153
153
152
152
152
152
150
150
149
149
148
147
145
144
144
143
142
142
141
140
139
137
136
134
134
133
131
130
129
128
127
125
123
122
120
119
117
117
115
113
111
110
108
107
105
104
103
101
100
98
97
95
93
92
91
89
87
86
84
83
82
80
78
77
76
74
74
73
71
70
69
68
67
66
65
64
63
63
62
62
60
157
156
156
155
156
155
155
155
155
156
155
154
154
154
153
153
153
153
152
151
151
151
151
151
150
149
148
148
147
145
145
144
143
143
142
141
139
139
137
136
134
133
133
132
130
128
128
127
125
123
122
120
119
117
116
115
114
111
110
108
107
106
104
103
101
100
98
98
95
94
92
91
89
88
86
84
83
82
80
79
77
76
74
73
72
71
70
69
68
67
66
65
63
63
62
61
60
59
59
58
156
156
155
155
155
155
155
155
155
154
154
154
153
152
153
153
152
151
151
150
150
150
150
148
148
148
146
146
145
144
143
143
142
140
139
138
137
136
135
134
133
132
130
129
127
126
124
123
122
120
120
118
116
115
114
112
110
108
107
106
104
103
101
100
99
98
95
94
93
91
89
87
87
85
83
81
80
79
77
77
75
73
72
71
70
69
68
66
66
65
63
62
61
60
60
59
58
58
57
56
155
155
155
155
155
155
155
154
154
154
153
152
153
153
152
151
151
151
149
149
149
149
148
147
146
145
145
145
143
143
141
141
140
138
136
135
135
133
133
132
130
130
127
126
124
123
122
120
119
118
116
115
114
112
110
108
107
106
105
103
101
101
99
98
95
94
93
91
89
88
87
85
83
82
80
79
77
76
75
73
72
70
69
70
67
66
65
64
63
62
61
60
60
59
57
56
56
55
55
54
155
155
155
155
155
154
154
154
153
153
153
153
152
151
151
151
150
149
149
148
148
147
146
145
145
145
143
142
141
140
139
138
137
135
134
134
133
132
130
129
127
126
125
123
122
120
119
118
117
115
114
112
111
108
107
106
104
103
101
100
99
97
97
94
93
91
90
88
87
86
83
82
81
80
77
77
74
73
73
71
70
69
67
66
66
64
62
62
62
60
60
58
57
56
55
55
54
53
53
52
154
154
154
154
154
154
153
153
153
153
153
151
151
151
150
150
149
148
148
148
146
145
145
144
143
142
141
139
139
138
137
135
134
133
133
131
130
129
127
126
125
124
123
120
119
118
117
116
114
112
110
109
108
106
105
103
101
100
99
97
96
94
93
91
90
89
87
85
84
82
81
80
79
77
76
74
73
72
70
69
68
66
65
63
62
62
61
60
59
58
57
56
55
54
53
53
51
52
52
50
154
154
154
153
153
153
153
152
152
152
151
150
150
150
149
148
148
147
146
144
144
144
142
142
141
140
138
138
137
136
134
133
133
131
129
128
127
126
126
124
123
120
119
118
117
115
113
112
110
109
108
106
105
103
102
100
99
97
96
94
93
91
90
88
87
85
84
82
81
80
79
77
76
74
73
72
70
69
67
67
65
64
62
61
60
59
58
58
56
56
55
55
54
52
52
52
51
50
49
48
153
152
152
152
152
152
152
151
151
150
149
150
148
147
147
147
145
144
144
143
142
142
141
140
139
138
137
136
133
133
132
131
129
129
127
126
126
125
123
120
120
117
116
115
113
112
111
109
108
106
105
104
102
101
99
97
96
95
93
91
90
89
88
85
84
83
81
80
79
77
76
74
73
72
70
69
67
66
65
63
62
61
60
59
59
57
57
55
55
54
52
52
51
50
50
49
48
47
48
47
152
152
152
152
151
150
150
149
148
148
148
147
147
146
145
144
143
143
142
142
141
140
138
138
137
135
134
132
132
131
129
129
127
126
126
125
123
120
119
117
117
115
113
112
110
109
108
107
105
103
102
101
99
98
96
95
93
91
91
89
87
86
84
83
80
80
79
77
76
74
73
72
70
69
67
66
66
63
62
61
60
59
59
58
57
55
54
54
53
51
51
50
49
48
48
48
48
47
45
45
153
152
151
151
150
150
149
149
148
147
147
146
145
145
144
143
142
141
141
140
139
137
136
135
135
132
132
131
129
129
127
126
125
124
122
120
119
117
116
115
114
113
111
109
108
107
105
104
103
101
99
97
96
95
94
92
90
89
87
86
84
83
81
80
79
78
76
74
73
72
70
69
68
66
65
64
62
61
60
59
59
58
57
56
54
54
52
51
50
50
49
49
49
48
47
46
46
45
45
45
151
150
150
149
149
149
148
147
148
146
145
144
144
143
141
141
140
139
138
137
136
136
134
133
132
131
130
129
128
126
124
123
122
120
119
118
116
115
113
112
111
109
108
107
105
103
102
100
99
97
97
94
93
90
89
88
87
85
84
83
81
80
79
77
76
74
73
72
71
69
68
66
65
64
62
61
60
59
59
58
56
56
55
53
52
51
50
49
49
48
48
47
46
46
45
44
44
44
43
42
150
149
148
148
147
147
145
145
143
143
143
143
142
141
140
139
139
138
136
136
134
133
132
131
130
128
127
126
125
123
122
120
119
118
117
115
113
112
111
110
108
107
105
103
102
100
99
97
97
94
93
91
89
88
87
85
84
82
81
80
79
77
76
74
73
72
71
69
68
66
65
63
62
61
60
60
59
58
57
55
54
53
52
51
50
51
49
48
47
46
46
45
44
44
44
43
42
42
41
40
147
146
146
146
145
144
143
143
143
143
142
141
141
139
139
138
136
135
133
133
132
130
129
128
127
126
125
123
122
121
119
118
116
115
114
113
110
110
108
106
104
103
102
100
99
98
96
95
93
91
90
88
87
86
83
83
81
79
78
77
76
74
73
72
71
70
68
66
65
64
62
61
60
60
59
58
56
55
54
53
53
51
50
49
48
48
47
46
46
45
45
44
43
43
42
42
41
41
41
40
147
146
145
144
144
143
142
142
141
141
140
139
137
137
135
135
134
132
131
130
128
128
127
126
124
123
122
121
119
119
116
115
114
113
111
108
107
106
105
103
102
100
99
98
97
94
93
91
90
87
87
86
84
83
80
79
78
77
76
74
73
72
71
70
69
66
65
64
63
61
60
60
59
58
55
55
54
53
53
51
50
50
49
48
47
47
47
45
45
43
43
42
42
41
41
41
40
40
39
39
145
144
144
143
142
141
141
140
139
138
138
137
136
135
134
132
131
130
128
128
127
126
124
123
122
121
119
117
116
115
114
113
110
109
107
106
104
103
102
101
99
97
97
94
93
91
89
88
87
86
84
82
81
79
78
77
75
73
73
72
71
70
68
66
66
64
62
61
60
60
59
57
56
55
54
53
52
52
50
50
49
48
48
47
46
45
44
44
43
42
42
41
41
40
40
40
40
39
39
39
143
143
142
142
140
139
138
138
138
137
136
135
134
132
131
130
129
128
127
125
125
123
122
121
118
118
116
115
114
113
111
109
108
106
104
103
102
101
99
97
96
94
93
92
89
88
87
86
84
82
81
80
78
76
75
73
73
71
71
69
68
67
66
64
62
61
60
60
59
57
56
55
54
53
52
51
50
49
48
47
48
47
46
45
44
43
43
42
42
41
41
40
41
40
39
39
39
39
39
38
142
141
141
140
138
137
137
136
135
135
134
133
131
130
129
128
126
125
124
123
121
121
119
118
116
115
113
113
111
110
108
106
105
103
102
101
99
98
96
95
94
91
90
89
87
86
84
83
81
80
78
77
75
73
73
71
70
69
69
66
65
64
62
61
60
59
59
58
56
55
54
52
52
51
51
49
48
48
48
47
46
44
44
44
43
42
41
41
40
40
41
40
40
39
39
38
39
38
38
37
140
140
139
137
137
136
135
134
133
132
132
131
128
127
127
126
124
123
122
121
120
119
117
115
113
112
111
109
108
106
105
104
102
101
99
97
96
95
93
91
90
89
87
86
84
83
82
80
79
77
75
74
73
71
70
68
67
67
66
63
63
61
60
58
58
58
56
55
54
53
52
51
51
49
48
47
47
47
45
45
44
43
43
42
41
40
41
41
40
40
40
39
39
39
39
38
38
38
38
38
138
138
136
136
134
134
132
132
132
130
128
127
126
125
125
123
122
120
119
119
116
115
113
112
111
109
108
106
105
103
102
100
99
97
96
93
93
91
90
89
87
86
84
83
82
79
79
78
76
74
73
71
69
68
66
66
65
63
62
61
60
58
58
57
56
55
54
52
52
50
50
50
48
47
47
47
45
44
43
43
43
41
41
40
41
41
41
41
39
39
39
39
38
38
38
38
38
38
38
38
135
134
134
134
132
131
130
129
128
128
126
125
124
122
121
120
118
117
116
115
114
113
111
110
108
107
104
103
102
100
99
97
96
94
92
91
90
89
87
86
84
82
81
80
79
78
76
74
73
71
70
69
67
65
65
64
62
61
60
58
58
57
56
55
54
53
51
51
50
50
48
48
47
46
45
45
43
43
43
41
41
41
40
41
41
40
39
39
39
39
38
38
38
38
38
38
38
38
38
39
134
132
132
131
130
128
128
127
127
125
124
122
122
120
119
117
116
115
114
113
111
110
108
107
105
104
102
100
99
97
96
94
92
91
90
88
87
86
84
82
81
80
78
76
75
73
73
72
70
69
67
66
65
63
62
61
61
59
58
56
55
55
54
53
52
50
50
50
48
48
46
46
45
45
43
43
42
42
41
41
41
41
41
40
39
39
39
38
38
38
38
38
38
38
38
38
38
39
39
39
132
131
130
128
128
127
126
125
123
122
122
120
119
117
117
116
114
112
110
109
109
107
106
104
102
101
100
98
96
94
93
91
89
89
87
86
84
83
81
79
77
76
75
73
72
72
70
69
67
66
65
63
61
61
60
59
57
56
55
54
54
52
52
50
49
49
48
47
46
46
44
44
43
42
42
42
41
41
40
41
41
40
39
38
39
39
38
38
38
38
38
38
38
39
39
39
39
39
40
40
130
128
127
126
125
124
123
122
121
120
118
118
116
115
113
112
110
109
108
106
105
103
102
100
99
97
96
94
93
92
90
89
87
86
84
83
81
79
78
76
75
73
72
71
69
69
68
66
65
63
62
61
59
58
58
56
55
54
53
52
52
50
49
49
48
47
46
45
45
44
43
42
41
41
41
40
40
41
40
40
39
38
38
38
38
37
38
38
38
39
39
39
40
39
40
40
40
40
40
40
127
126
125
124
124
121
121
119
119
118
116
115
113
112
111
109
107
106
105
104
102
100
99
97
96
94
93
92
89
88
86
86
84
83
81
80
78
76
75
73
72
71
69
67
67
66
65
63
62
61
59
58
57
56
55
54
52
51
51
50
48
47
47
47
45
45
44
43
43
42
41
41
41
40
40
40
41
40
38
38
38
38
38
38
38
38
38
38
39
39
39
39
40
40
40
40
40
40
41
41
124
123
121
122
120
119
118
116
115
115
113
112
111
109
107
106
105
104
102
101
100
98
96
95
93
92
90
88
86
86
84
81
80
79
78
77
75
73
71
70
69
68
66
65
63
64
62
60
59
58
56
56
55
54
52
52
50
50
49
47
47
47
45
45
44
43
43
43
41
40
40
41
40
39
39
39
39
38
38
38
38
37
38
38
38
38
39
39
39
39
39
40
40
40
40
41
41
42
42
42
122
120
120
119
118
117
116
114
112
111
110
109
108
106
105
103
102
100
99
98
96
95
93
92
91
89
87
85
84
83
80
79
78
76
75
73
73
71
69
68
66
65
64
62
61
60
59
58
56
55
54
53
52
52
51
49
48
47
47
47
45
45
44
43
43
42
41
41
40
40
40
39
39
39
39
38
38
38
38
37
37
38
38
38
39
39
39
40
40
40
40
40
41
41
42
42
42
42
42
42
119
119
117
116
115
115
113
112
110
109
108
106
105
104
102
101
99
98
96
95
93
92
90
89
86
86
84
82
80
80
78
76
75
73
72
71
69
68
66
65
63
62
61
59
58
58
56
54
54
53
52
51
50
49
48
47
46
47
46
44
43
43
42
42
41
40
40
39
39
39
38
38
39
38
37
38
38
37
37
38
38
38
39
40
39
40
39
40
40
40
41
42
42
42
42
42
42
42
42
42
117
116
115
113
112
111
109
108
107
105
105
103
102
101
99
98
96
95
93
93
90
89
87
86
84
82
81
79
79
77
75
73
73
71
69
68
66
65
64
62
61
60
58
57
56
55
54
52
51
50
50
49
48
47
46
45
45
44
44
42
42
41
40
40
40
39
39
38
38
38
38
38
37
37
37
37
37
38
38
38
39
40
40
39
40
40
40
40
41
42
42
41
42
42
42
42
42
43
43
43
114
113
112
112
110
108
107
106
105
103
101
101
99
98
96
95
93
92
91
90
88
86
84
83
81
79
78
77
76
74
72
71
69
68
66
65
63
62
61
60
58
58
56
55
54
52
52
50
49
49
48
47
46
45
44
44
44
43
41
40
40
40
39
39
37
37
37
38
38
37
36
36
37
37
37
37
38
39
38
39
40
39
39
40
40
40
41
42
42
41
42
42
42
42
42
43
43
43
43
43
111
110
109
108
106
106
105
103
102
100
100
98
96
95
93
92
90
89
87
86
85
83
81
80
79
77
75
73
72
70
70
68
65
64
64
62
61
60
59
57
56
55
54
52
52
51
49
48
47
47
45
45
44
42
43
42
40
39
40
39
38
38
38
38
37
38
38
38
36
36
36
36
37
37
37
38
38
38
39
40
39
39
40
40
41
42
42
41
42
42
42
42
43
43
42
43
43
43
43
43
109
108
107
106
105
102
101
100
99
98
95
95
94
92
91
89
88
85
84
83
81
80
79
78
76
74
72
71
69
68
66
65
64
62
61
58
57
57
56
55
53
52
50
51
49
48
48
46
45
45
44
43
42
41
41
39
38
38
38
37
37
37
37
37
37
37
37
36
37
37
36
37
38
38
38
38
39
39
39
38
40
40
40
42
42
41
41
42
42
42
42
43
42
43
43
43
43
43
43
43
106
105
104
103
102
101
100
98
96
95
94
92
91
89
89
86
85
83
82
80
79
77
75
74
72
72
69
68
67
65
64
62
61
59
57
57
55
55
53
52
50
50
48
48
47
46
44
44
44
43
42
40
40
39
38
38
38
37
37
37
37
36
36
36
36
36
36
37
37
37
38
38
38
39
39
39
39
39
39
40
40
41
42
41
41
42
42
42
42
43
43
42
42
43
43
43
43
44
44
44
104
103
102
100
99
98
96
94
94
93
92
90
88
86
85
82
82
81
79
78
76
75
72
72
70
69
67
65
64
62
61
59
58
57
55
55
53
52
51
49
48
47
46
46
45
44
43
42
41
40
39
39
38
37
37
37
37
36
37
35
35
35
35
36
35
36
36
37
37
38
37
38
39
39
39
40
39
40
39
40
41
41
41
41
42
43
43
43
43
43
43
43
43
43
43
44
45
45
45
45
101
100
99
98
97
95
93
92
92
89
89
87
86
84
82
80
79
78
76
76
73
71
70
68
67
65
64
63
62
59
58
57
55
55
53
51
50
50
49
47
46
45
44
43
43
41
40
40
39
38
37
37
37
36
36
35
35
35
35
34
35
35
35
36
36
37
37
37
37
37
38
39
38
39
40
40
40
39
41
41
40
41
41
42
42
42
43
43
43
43
43
43
44
45
45
45
44
45
45
45
98
98
97
95
94
92
92
90
89
88
86
84
83
82
80
77
78
75
73
72
71
70
68
66
64
63
62
60
59
56
55
54
53
52
50
49
48
47
46
45
44
43
43
41
40
39
38
38
37
37
37
36
36
36
35
35
34
34
35
35
35
35
36
36
36
37
37
37
38
38
39
38
39
40
40
40
40
41
40
41
41
42
42
42
43
43
43
43
43
43
44
45
45
44
45
45
45
45
45
45
96
94
94
93
91
90
88
88
86
85
84
82
79
79
77
76
75
72
71
69
68
66
65
63
62
59
59
58
56
55
54
52
51
49
48
47
46
45
43
43
41
40
40
39
38
36
37
37
36
36
35
35
34
34
34
34
34
35
35
35
35
36
37
36
37
37
37
38
38
39
39
39
39
40
39
41
41
40
41
41
42
42
42
43
43
43
43
43
43
45
45
45
45
45
45
45
45
45
46
46
93
92
92
90
88
88
86
85
83
82
81
79
78
76
74
72
72
70
68
67
65
64
62
61
58
57
56
55
53
52
51
50
48
48
46
45
44
43
42
40
40
39
38
37
36
36
36
35
34
34
35
34
34
34
34
34
35
35
35
36
36
37
36
37
37
37
38
38
39
39
39
39
40
39
40
40
40
41
41
42
42
42
43
43
43
43
43
44
45
45
44
45
45
45
45
45
46
46
45
46
91
90
88
88
87
85
84
82
81
79
78
77
76
74
72
70
69
68
66
65
63
61
60
58
57
55
54
53
51
50
48
47
46
45
44
43
41
41
39
38
37
37
37
35
34
34
34
33
34
34
33
33
33
34
35
34
35
36
36
36
36
36
36
37
37
38
38
38
39
38
39
40
39
40
40
41
41
41
42
42
43
43
43
42
43
44
44
44
44
44
45
45
45
45
46
46
46
46
46
47
89
88
86
85
84
82
82
80
78
77
75
74
72
71
69
68
65
66
64
62
61
59
58
56
54
53
51
50
49
48
46
44
44
43
42
40
39
38
38
36
36
36
34
34
34
34
33
33
33
33
32
33
33
35
35
34
35
35
36
36
36
36
37
37
38
38
38
39
38
39
40
40
40
40
41
41
41
42
42
42
43
42
43
44
44
44
44
44
45
45
45
46
46
47
46
46
46
46
46
46
86
85
85
83
82
81
79
78
76
74
74
71
70
69
66
65
65
63
61
60
58
57
54
54
52
50
49
48
48
45
44
43
42
41
39
38
37
37
36
35
34
34
33
33
33
32
33
32
33
33
34
33
34
35
35
35
35
36
36
36
36
37
38
38
38
39
39
39
39
40
40
39
41
41
41
41
42
42
42
43
42
42
44
44
44
44
45
44
45
46
46
46
46
46
46
46
46
46
47
47
85
82
81
81
79
78
76
75
74
72
71
69
68
67
65
64
62
60
58
58
56
54
52
52
50
48
47
46
45
43
43
40
40
38
38
37
36
35
34
34
34
32
32
32
32
32
33
34
34
34
34
34
35
35
35
36
36
37
37
36
36
37
37
38
38
39
39
39
40
40
40
41
41
42
42
41
42
42
43
43
43
43
43
44
44
44
45
45
45
46
46
46
46
46
46
46
46
47
48
47
83
81
80
78
78
76
75
74
72
70
68
68
66
65
62
62
59
57
56
55
54
52
50
49
47
46
45
44
43
42
40
39
38
37
37
34
34
34
33
33
32
32
32
32
33
33
33
33
34
34
34
35
35
35
36
36
36
37
37
36
38
37
38
38
39
39
40
39
40
40
41
41
42
41
41
42
42
43
43
43
43
43
44
45
44
45
45
46
46
46
46
46
46
46
46
47
47
47
48
47
80
79
78
77
75
74
73
72
70
68
66
65
65
62
61
59
57
55
54
52
52
50
48
47
46
44
44
42
41
38
38
37
36
35
34
33
33
32
31
32
31
33
32
33
33
33
33
34
34
35
35
35
35
35
36
36
36
37
37
38
39
38
38
38
38
39
39
39
40
40
41
41
42
41
42
42
42
43
43
43
43
44
44
44
45
45
45
45
46
46
46
46
46
46
47
47
47
47
47
48
77
77
76
74
73
72
71
69
68
66
64
64
62
61
58
56
55
54
52
50
50
47
47
45
45
42
40
40
38
37
36
34
35
35
33
32
32
31
31
32
32
32
32
33
33
33
33
35
34
34
36
36
35
36
36
36
37
37
37
38
38
38
38
38
39
39
39
40
40
41
41
41
41
42
42
42
44
43
43
44
44
44
43
45
45
45
46
46
46
46
46
46
47
47
47
47
47
48
48
47
77
74
74
72
71
70
68
67
65
64
62
61
60
58
57
55
54
52
51
48
48
47
45
43
41
40
39
38
37
35
34
34
34
32
31
32
32
31
31
32
33
32
33
33
33
34
34
35
35
35
36
35
36
36
36
37
37
37
38
38
38
38
39
39
39
39
40
39
40
41
41
41
41
42
42
43
43
43
44
43
44
44
44
45
45
45
46
46
46
46
46
47
48
47
48
48
48
48
47
48
