P2
# CREATOR: GIMP PNM Filter Version 1.1
50 33
255
129
132
134
135
137
139
143
145
147
150
151
154
156
158
161
162
164
166
167
167
167
168
167
167
166
165
164
163
161
160
157
155
154
151
150
146
144
140
138
135
132
130
127
125
122
119
116
114
112
111
132
134
136
137
140
143
144
147
149
151
153
155
157
159
161
163
164
165
166
166
166
166
166
165
164
162
161
160
158
156
154
152
150
148
144
143
140
137
134
132
128
126
123
121
118
115
112
111
108
106
136
136
138
141
142
144
146
148
150
152
154
157
158
160
161
164
164
164
164
165
165
164
162
163
162
159
158
157
155
153
151
149
147
144
141
139
136
133
131
128
125
121
119
116
114
111
108
106
105
102
138
140
141
142
144
147
148
150
152
154
156
158
160
161
162
163
164
163
163
162
162
162
161
160
159
157
155
154
152
150
147
145
143
140
137
134
131
129
126
123
121
117
114
111
109
106
104
101
99
98
141
141
143
145
147
148
151
152
154
156
158
158
161
162
162
162
162
162
162
161
160
159
158
156
156
154
153
150
148
146
144
140
138
135
133
130
127
124
121
118
116
112
109
107
104
101
99
97
94
92
143
145
146
147
149
151
152
154
156
157
158
160
160
161
161
161
161
160
159
159
158
156
155
153
152
150
148
146
144
141
139
137
135
131
128
125
122
119
116
113
111
107
104
101
98
96
94
92
90
87
146
147
149
150
152
153
154
156
157
158
159
158
160
159
158
159
158
158
157
157
155
153
152
150
148
146
145
142
140
137
134
132
128
126
123
120
117
114
110
107
105
101
99
97
94
91
89
87
84
83
149
150
151
152
154
155
156
158
158
158
158
159
158
157
157
157
156
155
154
153
152
150
148
146
144
143
140
137
134
132
129
127
124
121
117
115
112
108
105
102
99
97
94
91
89
86
84
81
80
78
151
153
154
155
157
157
156
157
157
157
157
157
156
156
156
155
154
152
151
150
149
146
144
142
139
137
134
132
130
127
124
121
118
114
112
109
106
103
100
98
95
91
88
85
83
81
78
77
75
73
155
156
157
156
156
157
156
156
156
156
156
155
155
154
153
152
151
149
148
146
144
142
140
137
134
133
130
127
124
121
118
115
112
110
106
104
101
97
94
91
89
86
82
81
77
76
73
71
70
68
156
156
156
156
156
156
156
156
155
155
154
154
152
151
150
149
147
146
144
141
140
138
135
133
130
127
125
121
119
116
113
110
107
104
100
97
94
91
89
86
82
81
78
75
73
70
68
66
65
63
156
156
156
155
155
155
154
153
153
153
151
151
149
148
146
145
143
142
139
137
134
133
130
127
125
122
119
116
113
110
107
104
101
98
95
92
89
86
83
80
77
74
72
70
68
65
63
62
60
59
155
155
155
155
154
153
153
152
151
150
149
148
146
145
143
142
139
137
135
133
130
127
124
121
119
116
113
110
107
104
101
98
95
92
89
86
83
80
77
74
72
70
67
65
63
61
60
57
56
55
154
154
154
153
153
152
151
150
149
148
145
145
143
140
139
136
134
132
130
127
125
122
119
117
113
111
108
104
101
98
96
93
90
87
84
81
78
75
72
70
67
65
62
60
59
57
55
54
52
52
153
153
153
151
151
150
148
147
145
144
143
141
138
136
134
132
129
127
125
123
119
117
113
110
108
104
101
98
95
93
90
87
84
80
78
75
73
69
67
65
62
60
59
56
55
52
51
49
48
47
152
151
150
149
147
147
145
144
142
141
138
136
134
131
129
126
124
122
118
116
113
110
107
104
101
98
95
93
90
87
84
80
78
75
73
70
67
65
62
60
58
56
54
51
50
49
48
47
45
44
149
148
147
146
145
143
142
140
138
136
133
131
129
126
124
122
119
116
113
110
107
104
101
99
95
92
89
86
83
80
78
75
73
70
67
65
63
60
58
56
54
52
50
48
48
46
44
44
43
41
147
145
144
142
141
140
138
135
133
131
129
126
124
121
119
116
113
110
106
104
100
98
95
92
89
86
83
80
77
75
72
70
67
64
62
60
58
55
54
52
50
48
47
45
45
43
42
41
41
40
143
142
140
138
138
135
133
131
129
126
123
122
118
116
113
109
107
104
101
99
96
93
89
86
83
80
77
74
72
70
67
64
62
60
58
56
54
52
50
48
47
45
44
42
41
41
41
39
39
38
139
138
136
134
132
131
128
125
124
122
119
116
113
110
106
104
101
98
95
92
90
87
83
81
78
74
72
69
67
64
62
59
58
55
54
51
50
47
47
45
43
42
41
41
40
40
39
38
38
38
135
134
132
130
128
125
123
121
118
115
113
109
107
104
101
98
95
91
89
86
83
80
77
75
72
69
66
64
62
58
57
55
53
51
50
48
46
44
44
42
41
41
40
39
39
38
38
38
38
39
131
129
127
124
122
120
118
115
112
109
107
104
101
98
95
92
89
86
83
79
77
74
71
69
66
63
62
59
57
55
53
51
49
47
46
44
43
41
41
41
40
39
38
38
38
39
39
40
40
40
125
124
122
119
118
115
112
109
106
104
101
98
95
92
89
86
83
80
77
73
71
68
65
63
62
59
56
54
52
50
48
47
45
43
43
42
41
40
40
38
38
38
38
38
40
40
40
40
41
42
121
119
117
115
111
109
106
104
101
98
95
92
89
86
83
80
76
74
71
68
66
62
60
58
54
54
52
50
48
47
45
43
41
41
40
39
39
38
38
38
38
38
40
40
40
40
41
42
42
42
116
114
111
108
105
104
101
98
95
93
89
86
83
80
77
73
71
68
65
62
60
57
55
53
50
49
47
46
44
42
41
40
39
39
38
37
37
37
38
38
39
40
40
40
41
42
42
42
43
43
110
109
105
103
100
98
95
92
89
86
83
80
77
73
71
68
65
62
59
58
55
52
51
48
46
45
43
42
40
39
38
38
37
38
37
36
38
38
38
39
39
41
41
42
42
42
42
43
43
43
105
103
100
97
95
93
89
86
83
80
77
74
72
68
65
62
59
56
54
51
50
47
46
44
43
41
39
38
37
37
36
36
36
37
37
38
39
39
40
40
41
41
42
43
43
43
43
44
44
45
100
98
95
92
89
87
84
81
78
75
72
68
66
63
59
57
54
52
49
47
45
44
41
40
39
37
37
36
35
35
34
36
36
37
38
38
38
40
40
41
41
42
42
43
43
44
45
45
45
45
95
92
90
88
85
82
79
75
72
69
66
64
60
57
54
51
49
47
44
43
40
39
37
37
35
35
34
34
35
35
36
36
37
38
39
39
40
40
41
41
42
43
44
43
45
45
45
45
45
46
90
88
85
82
79
76
73
70
68
65
61
59
55
52
49
47
45
42
40
38
37
35
34
34
34
34
34
34
36
36
36
37
38
38
39
39
41
40
41
42
43
42
44
44
44
45
45
46
46
46
85
83
80
78
75
71
69
66
62
60
56
54
51
48
45
43
40
38
37
35
34
33
33
33
33
34
35
36
36
36
36
38
39
39
39
40
41
41
42
42
43
43
44
45
45
46
46
46
46
47
81
79
76
73
70
67
65
61
58
55
52
49
47
44
41
38
37
35
33
33
32
32
33
34
35
35
35
36
37
37
38
38
39
40
40
41
42
41
42
44
44
44
45
45
46
46
46
47
47
48
77
74
71
68
66
63
60
57
54
51
48
45
42
40
37
34
34
32
32
32
33
33
33
34
35
36
36
37
37
38
38
39
39
40
41
42
41
42
43
44
44
44
45
46
46
46
47
47
48
47
