P2
# CREATOR: GIMP PNM Filter Version 1.1
100 67
255
225
225
224
224
222
222
222
221
220
218
215
212
209
205
203
199
198
198
196
194
191
187
184
181
179
177
179
178
172
171
170
169
170
168
167
165
164
164
165
167
167
168
169
168
171
175
174
169
171
170
172
170
171
171
168
168
168
169
169
167
165
165
167
168
151
151
121
108
174
116
200
158
178
237
132
152
170
241
239
131
176
145
158
212
241
240
238
178
205
139
122
210
241
238
229
239
233
235
241
235
224
225
226
227
225
224
222
219
217
216
214
213
211
206
203
202
200
199
196
195
193
191
188
187
183
181
181
180
180
172
168
165
166
167
168
166
165
165
165
165
167
169
170
172
175
176
173
177
176
174
173
175
175
174
173
170
169
170
171
170
172
173
171
170
168
129
140
133
185
117
162
150
225
236
134
150
173
240
238
129
176
140
195
224
240
232
147
215
99
161
239
240
239
155
237
231
242
239
222
236
225
224
223
224
225
225
224
222
219
215
214
212
211
208
206
203
203
201
195
195
194
194
192
189
187
186
187
188
189
187
186
179
172
168
164
164
164
166
170
170
170
168
172
173
174
176
174
173
177
177
178
178
177
177
174
174
169
169
170
168
170
172
173
172
172
135
106
196
207
133
133
185
172
235
129
148
170
240
238
129
157
221
225
231
180
191
159
106
206
239
244
165
154
197
239
243
228
237
238
240
226
223
222
223
223
221
220
221
220
218
214
212
212
209
206
201
162
141
182
188
198
194
193
194
191
190
188
188
189
188
187
186
178
174
169
169
169
171
173
175
172
171
173
173
174
173
172
174
174
172
173
174
173
172
173
173
173
173
174
174
174
174
173
174
180
116
152
202
222
120
208
150
185
234
132
149
171
240
234
142
225
242
226
163
189
129
139
229
245
211
151
178
205
226
233
231
241
240
233
232
228
227
225
223
219
219
215
214
213
213
213
212
211
209
210
203
162
133
140
114
191
193
194
192
194
194
196
194
193
193
188
184
185
183
180
179
176
178
177
173
171
169
169
167
169
167
168
170
172
172
171
170
174
177
173
174
177
176
177
177
178
176
176
175
175
105
191
126
215
118
219
158
185
234
133
149
171
239
172
231
242
233
154
208
101
187
242
234
167
148
196
214
235
189
241
239
231
228
240
240
229
228
227
224
221
220
220
220
218
217
215
213
211
209
209
207
207
176
124
152
106
106
107
193
191
192
192
193
194
190
188
187
190
188
189
190
185
184
185
179
175
173
172
175
176
174
171
172
174
175
175
175
177
179
178
173
176
175
175
174
175
173
172
172
159
166
152
174
225
118
218
154
181
233
133
147
171
239
238
243
216
196
145
128
226
241
203
147
189
206
238
172
89
87
229
232
238
241
233
226
229
228
227
225
223
221
219
218
218
217
217
216
212
216
212
210
211
173
136
121
115
99
118
145
189
194
196
194
194
196
192
188
190
190
191
189
187
186
184
184
181
176
174
177
180
176
175
176
179
179
182
182
181
179
180
180
180
180
178
178
176
175
172
172
172
155
145
160
225
118
216
157
188
232
133
148
168
240
248
184
180
120
172
238
241
179
165
201
233
212
180
77
83
139
235
242
231
231
235
239
234
232
227
222
218
216
215
213
214
206
146
154
169
146
190
215
209
163
127
131
109
121
88
99
115
105
167
196
197
198
199
193
192
189
185
182
182
181
180
175
176
175
173
176
180
179
180
179
180
180
179
181
182
184
182
180
181
183
183
181
178
176
174
172
172
161
181
168
223
119
215
160
188
232
133
193
225
232
163
178
111
219
241
237
207
210
220
213
117
69
229
122
136
145
232
225
240
241
234
230
228
229
227
225
219
215
213
213
213
165
145
133
176
101
109
141
154
127
121
120
111
89
96
100
111
119
128
189
196
198
195
191
190
188
186
186
184
182
182
183
182
181
177
174
177
179
182
185
185
184
179
178
178
178
179
181
180
182
182
182
182
182
182
181
178
205
87
187
220
120
211
159
190
216
207
243
204
171
132
159
237
236
134
188
237
229
210
103
77
123
232
122
138
158
237
238
235
225
239
240
231
229
227
224
221
218
216
216
216
222
172
142
153
115
115
101
154
131
114
117
123
102
88
77
98
95
163
125
169
190
194
194
193
193
191
192
192
188
183
182
181
181
178
177
178
179
180
181
181
181
180
179
180
179
179
180
181
181
181
183
184
183
186
186
186
221
124
190
220
119
210
157
188
225
245
190
186
128
203
245
169
168
196
221
233
237
209
118
132
131
234
125
153
192
226
232
235
241
241
230
230
232
230
226
223
219
217
216
213
166
180
161
111
100
118
84
92
107
83
112
114
103
97
89
110
128
102
109
100
153
197
194
195
196
196
195
193
189
186
183
184
185
183
181
178
177
176
176
178
179
180
179
180
180
180
180
180
181
181
180
178
120
153
142
126
192
123
192
218
122
210
159
200
239
197
163
138
236
213
154
194
221
201
221
232
228
210
117
130
143
233
122
111
147
239
238
233
231
229
239
226
227
225
222
219
215
212
209
206
106
82
107
106
165
106
117
119
99
70
94
85
141
125
124
128
81
75
68
98
104
187
194
194
195
196
193
190
188
184
184
186
187
186
186
185
182
181
179
181
180
180
180
179
181
182
181
179
179
179
182
142
147
132
157
174
217
119
191
216
123
181
238
217
169
126
191
240
225
179
214
218
88
112
218
235
228
210
117
131
132
233
122
143
199
222
224
239
238
238
238
227
223
219
217
216
216
214
213
204
107
84
94
128
87
96
114
90
83
90
91
156
155
119
166
148
154
138
138
146
125
180
192
190
189
188
186
186
188
187
187
188
189
186
184
181
179
179
179
181
182
185
140
129
135
186
185
183
183
181
182
175
200
155
82
190
166
119
191
216
122
239
202
175
139
226
202
160
227
221
97
97
126
152
217
232
232
207
113
113
136
232
120
136
158
237
238
237
227
230
236
229
219
215
213
212
216
210
214
175
132
145
96
64
65
78
122
111
121
101
99
167
160
139
125
128
133
199
201
171
189
188
189
188
189
189
189
188
186
185
186
183
182
185
186
185
186
186
186
187
185
122
109
134
121
133
182
185
185
185
184
180
202
160
85
196
170
118
191
216
122
209
154
173
234
178
198
211
233
214
115
144
127
161
221
229
230
208
117
129
143
232
123
143
203
230
229
232
238
237
239
85
115
144
171
195
188
138
164
191
116
171
138
115
79
136
194
81
165
162
124
112
127
126
81
85
130
162
139
145
144
137
182
185
185
185
184
185
186
186
186
182
185
185
184
185
185
186
187
188
168
144
134
143
127
149
177
182
180
178
176
153
162
132
105
134
183
135
206
148
129
139
218
233
175
213
164
158
227
214
113
152
127
157
223
232
226
209
120
131
149
232
124
150
224
238
237
236
236
228
223
56
58
60
65
73
80
96
84
116
100
121
149
115
140
59
87
140
131
75
62
66
130
73
52
96
98
68
80
78
93
121
128
192
193
193
192
190
189
187
184
184
186
184
185
185
185
186
167
152
110
133
121
155
165
172
157
131
98
91
111
117
117
128
110
101
186
149
143
167
102
230
171
207
221
88
133
176
228
213
110
135
126
167
218
233
233
209
122
132
154
232
122
152
228
225
224
235
236
236
236
57
49
53
81
85
66
92
70
81
73
64
69
91
88
58
77
63
63
58
104
58
65
70
105
112
84
86
70
82
92
84
82
167
187
185
184
184
183
183
181
179
178
176
176
176
176
177
125
92
81
86
92
90
81
87
90
97
82
91
90
104
105
96
92
92
149
157
187
192
116
196
193
193
222
123
141
183
232
213
113
151
126
160
221
230
233
209
123
132
158
231
121
150
228
236
238
238
233
230
229
72
61
82
63
95
91
67
70
67
89
76
77
93
80
89
45
68
73
83
49
42
48
47
50
52
61
95
61
75
93
172
118
170
184
183
182
180
180
180
180
178
174
180
169
179
179
166
168
109
94
102
85
77
70
101
96
95
94
94
117
148
154
161
172
173
158
232
170
200
121
193
140
191
220
120
142
180
231
214
115
160
125
171
222
232
226
210
121
133
159
231
120
149
229
232
227
226
232
237
237
59
60
57
125
144
142
75
69
76
83
64
71
67
70
50
83
68
69
76
54
31
47
97
88
49
39
85
50
91
174
189
185
187
186
185
183
181
180
180
178
156
113
121
82
164
145
167
157
105
103
91
114
88
88
131
115
109
115
163
167
176
172
171
149
158
191
185
187
199
117
194
156
190
219
115
143
182
227
213
117
165
126
172
223
234
234
209
122
133
157
231
120
145
231
236
237
236
236
236
234
59
54
56
75
88
113
62
68
79
48
41
78
43
43
45
40
50
52
59
58
73
112
114
105
97
91
74
55
107
98
188
187
185
183
182
180
179
182
174
123
86
67
62
63
55
76
116
166
117
130
117
117
130
154
143
101
107
125
128
142
107
189
180
81
155
203
110
200
197
119
192
156
193
222
121
143
183
231
213
118
169
124
175
218
232
231
210
120
134
156
231
124
135
208
228
228
231
233
232
233
70
47
56
64
67
81
65
115
88
53
56
41
40
37
36
32
38
56
51
53
83
66
69
73
89
85
95
79
98
71
165
186
177
183
181
180
166
122
85
69
61
55
54
59
56
52
56
102
157
147
163
124
119
164
159
120
134
108
103
103
137
174
170
124
158
203
128
199
195
118
195
165
194
218
122
145
183
233
213
118
170
124
173
220
228
228
208
119
130
167
220
124
122
160
237
237
237
236
237
236
54
48
52
57
58
59
85
96
102
89
42
30
40
40
46
54
40
83
77
56
62
87
64
60
57
60
74
75
107
185
143
165
151
162
183
180
166
142
76
98
92
84
139
64
66
69
64
59
144
130
132
129
85
153
109
139
114
102
98
86
118
117
146
141
136
176
130
199
194
118
195
166
196
220
120
144
185
233
209
116
169
128
165
222
233
230
206
118
110
126
155
166
198
217
233
227
227
227
225
229
39
45
53
49
70
81
70
78
85
98
69
69
41
43
59
61
46
106
101
74
64
57
65
61
43
51
68
66
91
140
105
104
83
130
187
185
177
160
65
75
82
90
127
62
53
64
46
52
81
151
146
111
103
141
115
131
120
97
101
70
78
128
173
110
149
167
129
202
196
121
193
164
196
215
124
152
184
235
201
112
146
135
164
219
232
232
207
225
232
231
235
238
240
241
232
234
236
236
236
236
39
37
35
50
56
76
57
78
70
95
89
85
95
34
38
59
56
114
65
70
54
60
59
61
73
63
63
56
53
67
81
67
71
59
89
88
130
156
90
69
64
51
58
49
56
65
47
50
59
97
106
137
113
112
154
118
126
111
124
84
92
138
156
84
159
156
126
197
195
121
190
158
196
216
131
158
192
232
206
209
227
232
224
215
228
228
210
239
241
233
241
236
237
238
230
229
229
231
230
230
47
25
45
49
50
71
61
80
52
107
97
92
57
49
46
72
97
87
74
43
38
47
54
45
55
57
61
58
50
67
72
67
65
81
99
113
134
73
80
62
56
52
40
39
51
53
49
46
50
101
125
126
152
111
106
107
107
169
122
105
96
172
162
80
156
144
129
197
193
121
194
197
219
221
240
243
208
229
209
237
237
237
223
217
233
230
213
234
235
240
242
242
241
242
234
236
235
237
237
237
34
33
38
44
57
51
40
72
61
88
100
72
63
40
28
67
69
54
45
51
35
43
36
42
58
57
61
51
50
58
66
60
57
78
156
141
87
72
74
58
55
62
54
44
35
45
49
38
47
86
117
88
105
92
90
104
101
128
165
95
61
177
155
49
129
151
168
204
192
122
207
241
218
226
237
243
208
233
201
243
240
240
228
216
233
234
219
244
241
242
241
242
242
242
234
233
232
225
225
223
23
36
35
41
49
54
41
81
63
100
97
89
79
57
37
36
53
104
46
43
57
52
46
48
51
47
57
52
50
68
62
54
49
61
84
131
48
53
45
51
57
66
43
63
46
34
44
43
38
57
52
97
91
82
61
84
111
120
126
116
150
156
129
110
130
142
182
179
193
120
211
224
223
229
230
219
200
232
206
224
217
216
213
201
225
233
223
234
233
229
228
225
226
221
215
212
215
228
232
232
33
29
40
41
51
74
40
79
46
108
76
74
54
53
33
43
65
59
46
44
55
50
48
59
57
50
51
42
39
78
54
45
68
68
96
156
82
61
40
39
41
43
46
50
59
59
48
44
60
51
66
72
77
76
113
146
177
116
140
161
156
127
101
98
83
169
205
204
131
116
202
196
194
197
196
194
194
197
197
217
212
199
203
195
208
212
213
221
225
221
215
206
216
202
198
199
204
216
216
214
24
44
43
42
69
72
40
77
61
80
71
78
93
57
55
66
81
57
53
43
66
110
60
58
52
51
48
46
47
61
41
42
49
62
89
102
58
64
31
48
37
30
46
59
43
49
46
52
44
134
113
94
57
50
145
183
183
185
162
161
163
134
111
99
129
147
155
189
137
100
184
193
201
175
194
192
198
201
179
178
177
163
159
151
147
136
141
159
174
176
179
169
198
195
190
198
198
210
211
218
31
40
42
48
66
75
24
79
46
50
71
46
72
67
58
104
59
49
43
43
52
68
56
49
62
56
46
49
43
34
54
65
54
145
149
184
151
102
41
42
42
40
34
35
41
30
44
44
50
126
104
88
58
69
122
194
185
194
192
110
80
106
89
63
72
145
149
183
117
92
151
173
153
120
66
176
199
187
185
145
158
174
186
197
200
202
188
199
198
201
200
184
176
179
166
159
160
157
159
143
34
34
40
53
73
77
37
74
55
48
71
54
43
67
66
57
70
37
40
36
40
37
42
45
50
36
47
44
50
41
63
64
54
40
64
63
109
93
39
73
44
36
27
39
34
40
39
45
70
78
107
101
112
113
185
183
184
186
189
108
82
104
84
64
67
142
150
184
127
75
155
177
139
134
70
166
188
176
198
99
84
191
195
200
191
180
177
157
131
143
157
178
187
199
191
193
189
171
206
210
28
24
52
49
70
73
31
63
42
15
62
41
41
48
46
46
45
27
48
19
52
53
58
58
55
33
19
51
81
53
44
39
57
68
74
63
64
57
48
56
47
38
27
37
50
69
69
58
71
83
80
83
71
149
170
179
176
173
173
91
82
127
87
64
68
126
144
188
87
68
147
125
119
141
62
161
183
192
201
102
110
177
183
181
187
184
197
154
80
75
29
169
193
168
144
157
154
165
187
201
35
40
48
47
72
68
30
57
42
19
60
46
45
50
59
59
57
35
45
18
53
44
58
60
59
43
27
41
68
54
53
33
54
57
58
56
58
58
60
62
68
75
54
88
98
93
91
87
31
29
28
43
50
69
113
102
145
99
90
97
87
99
138
130
58
173
170
181
92
63
94
118
117
135
73
156
187
185
199
100
109
169
180
186
201
196
193
151
93
99
73
131
173
209
204
197
199
195
194
179
58
46
59
56
58
77
92
108
101
109
49
34
26
34
35
34
41
31
31
30
42
46
41
39
34
45
39
31
34
27
28
34
34
33
34
34
35
35
34
43
113
38
46
26
27
29
27
28
37
35
36
38
53
49
59
60
71
76
53
47
41
47
40
46
44
179
212
168
65
53
87
160
123
132
68
175
191
193
185
95
110
177
195
202
190
182
184
150
91
106
91
197
195
181
179
166
178
188
195
187
55
55
56
49
47
60
60
41
49
61
71
90
103
102
104
103
105
30
101
95
95
97
96
96
97
95
91
100
97
85
80
74
74
70
74
77
78
76
66
91
135
39
51
45
50
48
50
43
47
39
44
42
62
52
52
83
148
81
97
89
106
107
111
109
109
133
185
119
69
49
132
177
132
144
78
167
198
188
189
97
111
180
195
181
188
191
201
149
95
102
62
127
178
212
210
200
191
167
176
162
88
101
114
117
117
117
117
117
117
120
120
120
123
119
119
119
112
29
109
114
114
117
120
119
118
122
115
115
103
113
117
110
111
112
119
124
120
110
105
103
95
85
64
84
86
90
91
94
96
99
103
103
101
104
109
105
89
87
82
66
55
50
49
58
62
79
79
76
55
38
112
147
126
119
100
171
198
197
185
106
109
196
184
182
194
198
190
163
94
104
71
152
205
184
164
174
201
172
201
197
61
69
72
75
77
82
82
84
86
88
91
96
101
105
107
80
103
31
117
110
111
103
75
56
33
76
86
119
124
126
127
131
127
129
128
128
129
130
131
128
121
117
73
114
105
96
103
97
97
98
97
88
68
65
57
55
58
53
49
48
48
50
53
54
52
58
39
42
45
38
54
115
113
99
105
208
206
206
193
99
107
175
198
199
194
179
184
166
97
109
72
136
169
201
222
215
201
188
184
179
73
77
74
75
75
73
71
67
66
66
65
63
61
62
66
41
91
31
98
75
39
11
14
32
58
80
72
72
79
85
84
90
93
92
97
100
105
100
96
95
100
96
86
96
94
88
84
79
77
69
50
46
54
56
50
46
53
55
52
43
44
51
62
58
54
57
53
46
47
54
68
61
75
77
97
196
202
207
213
164
137
184
202
190
189
190
194
152
95
108
67
143
189
178
199
203
213
225
221
209
64
68
66
65
65
62
62
65
66
66
70
83
102
112
112
88
72
23
22
21
25
65
91
82
92
87
102
103
104
106
102
97
99
97
101
94
104
91
91
83
84
77
64
64
55
58
48
41
37
41
37
46
46
51
53
46
42
44
43
41
43
47
47
43
41
38
38
39
43
40
42
40
35
42
80
185
188
188
211
210
188
206
197
188
200
205
186
159
89
106
66
113
172
214
207
205
183
173
189
213
63
64
64
64
62
61
66
89
104
124
133
101
62
54
33
12
53
31
76
91
98
111
106
116
113
117
115
115
110
110
105
105
106
104
100
97
95
95
88
77
72
81
77
66
56
49
46
41
40
43
44
45
44
43
43
40
36
43
61
42
38
38
41
43
55
48
65
68
76
80
87
91
88
77
92
140
177
186
187
199
206
215
214
212
201
202
183
153
91
113
63
96
194
187
185
205
208
176
209
198
63
62
73
87
106
131
143
123
98
63
21
19
37
44
52
79
104
36
116
114
119
114
125
122
139
120
126
123
122
115
117
115
111
99
90
83
78
78
72
59
57
53
58
46
46
49
47
56
55
44
41
43
46
52
45
45
41
45
64
59
64
75
78
104
109
105
97
80
86
98
73
84
97
107
91
89
94
97
168
190
190
197
204
212
208
217
213
187
121
117
101
155
183
195
200
178
177
168
199
212
112
131
134
127
111
68
40
46
38
39
76
103
113
107
116
133
117
103
97
98
101
96
97
87
77
79
86
108
96
102
79
74
67
78
76
85
90
79
74
74
51
52
61
79
82
92
96
87
79
87
93
93
96
92
80
99
90
77
78
79
83
81
92
90
102
111
87
64
81
88
74
84
89
91
98
92
82
89
107
166
173
186
186
200
206
213
214
214
216
177
128
144
197
177
196
201
199
198
189
175
120
81
46
38
12
18
23
86
110
99
96
93
93
82
86
87
80
70
65
52
71
58
57
91
73
90
93
112
99
111
89
93
90
91
84
92
94
86
90
89
95
88
90
87
96
90
90
93
98
99
100
102
102
89
83
79
74
63
70
93
79
68
65
88
86
91
95
80
81
88
88
100
96
96
92
98
107
95
85
95
96
129
195
184
180
196
210
214
196
193
195
213
204
193
191
175
174
194
207
201
29
28
18
14
22
72
103
100
85
82
66
68
74
66
66
61
69
62
66
80
75
84
96
88
98
88
103
92
93
100
96
91
88
86
91
86
87
88
85
85
89
85
88
91
93
91
95
97
92
99
97
100
97
84
87
85
83
84
71
77
77
84
94
93
87
77
76
90
89
93
99
85
93
98
100
98
97
93
102
94
81
98
122
153
181
189
185
205
214
199
185
204
208
187
188
193
186
169
181
183
26
26
37
66
115
83
60
47
35
44
58
50
61
58
64
56
61
68
76
82
94
100
100
94
97
96
89
81
74
62
56
57
57
59
68
82
82
83
80
84
82
81
79
84
90
91
91
90
95
94
92
85
79
88
74
77
89
90
93
96
94
83
75
83
87
74
91
81
77
89
78
75
74
72
90
87
101
105
106
123
105
92
91
81
123
168
174
195
195
189
188
193
185
192
187
183
183
182
199
195
40
52
69
85
83
39
28
36
25
37
34
42
39
35
50
52
48
45
50
63
69
64
52
53
51
48
44
48
40
53
50
45
47
51
60
50
48
51
58
51
63
87
97
93
93
94
92
93
92
92
92
94
100
87
102
87
89
89
89
86
79
95
92
86
84
96
89
76
76
85
86
82
81
82
89
78
80
78
83
90
97
91
69
85
78
79
78
192
197
189
183
182
176
206
191
195
200
182
195
206
50
46
40
39
37
34
35
41
42
45
53
63
60
62
51
44
43
45
54
52
43
40
47
50
44
43
40
45
50
48
44
45
49
59
60
56
59
66
74
86
86
92
87
89
88
89
90
89
91
87
90
90
95
93
84
85
90
85
79
82
85
84
85
67
81
82
79
80
79
87
79
77
78
83
76
79
82
87
95
100
98
89
92
89
89
85
89
111
141
184
166
181
183
205
198
199
207
207
210
205
43
45
43
48
48
50
47
53
52
69
59
51
48
52
50
43
42
53
58
57
63
73
73
62
57
58
59
56
63
58
53
63
74
81
83
78
90
89
91
87
85
91
91
86
89
84
83
89
81
80
79
77
80
75
79
75
73
80
91
85
79
81
79
83
78
74
78
76
77
77
73
76
77
68
74
75
74
80
77
88
80
83
78
82
86
79
73
86
83
111
125
111
142
209
202
190
200
206
214
217
37
35
38
39
39
41
35
37
37
42
40
56
61
56
43
54
63
70
65
77
94
86
90
87
85
91
90
84
92
71
76
88
92
82
80
79
82
70
79
83
77
81
68
62
69
74
75
78
75
63
71
64
67
68
76
73
73
68
66
76
77
68
68
71
85
61
76
72
65
61
71
56
62
58
64
71
72
61
79
76
81
76
84
82
77
73
80
78
78
93
88
86
86
198
197
187
194
201
201
203
44
36
47
46
51
48
47
52
52
49
42
47
46
38
43
56
77
81
82
84
95
94
88
79
84
76
69
88
81
71
67
78
66
71
72
59
63
58
51
46
51
61
53
55
47
54
62
44
55
55
64
50
52
56
55
65
76
74
64
68
66
68
70
62
57
54
70
67
54
54
50
60
80
94
83
86
86
76
74
73
81
78
90
83
97
105
99
80
72
83
89
90
78
193
180
177
196
195
198
199
40
40
36
37
39
40
38
37
34
35
40
36
38
44
57
78
87
95
93
87
78
72
68
70
71
69
73
82
77
62
49
43
47
46
51
58
59
46
50
51
55
59
65
65
73
77
66
64
62
67
61
65
73
68
62
62
65
77
87
76
76
63
70
65
66
68
53
57
67
63
59
70
85
88
64
75
63
73
81
84
95
79
80
87
88
96
67
95
73
76
80
97
82
161
187
176
182
195
199
194
39
40
40
48
45
39
43
35
39
46
40
38
35
38
42
47
60
55
57
75
49
49
44
46
51
57
56
76
81
64
61
68
88
77
79
81
75
72
73
70
69
62
72
82
95
86
85
87
69
90
86
82
76
79
79
78
72
71
72
74
67
61
88
76
77
70
66
75
70
77
79
73
67
65
64
67
79
72
73
74
83
76
80
84
92
91
93
88
85
82
89
96
108
100
123
145
174
195
174
183
43
40
41
40
43
45
38
39
40
35
36
39
41
42
37
36
38
33
38
42
42
48
41
41
46
55
68
78
71
67
85
85
77
85
89
84
71
81
79
92
84
89
84
70
77
65
71
76
64
84
90
71
89
86
80
84
78
80
91
82
88
84
91
87
82
87
91
80
86
82
82
83
85
83
80
64
84
76
77
75
85
94
82
72
75
77
84
91
95
93
78
72
82
92
101
105
196
195
194
181
39
43
37
40
36
34
38
37
40
39
35
34
34
33
33
37
35
38
30
33
29
35
48
53
64
76
73
86
87
95
102
95
100
98
93
90
91
92
91
82
85
84
76
87
83
88
73
85
84
72
73
64
67
77
76
82
83
82
75
91
95
90
84
91
87
85
81
88
93
93
87
88
92
92
81
85
80
78
86
93
88
77
63
66
90
88
90
73
85
84
79
72
80
84
98
84
118
190
198
188
42
34
28
31
35
36
40
35
40
29
33
30
31
33
30
28
27
28
26
29
35
38
45
49
63
89
103
94
99
88
94
99
89
91
94
107
108
95
76
85
89
84
87
87
74
73
77
82
73
79
85
79
75
70
70
70
66
77
89
93
85
84
75
85
76
75
83
84
96
86
81
81
88
96
76
72
72
80
90
79
90
89
94
79
77
85
73
86
94
91
80
81
85
92
102
94
82
91
168
193
36
31
29
39
34
29
38
31
33
33
29
27
24
32
30
29
38
36
24
29
42
48
52
50
54
60
77
82
91
74
96
90
101
98
77
80
77
91
87
69
83
69
82
79
86
79
78
86
91
82
84
78
74
71
71
80
90
79
88
80
81
92
95
84
75
86
98
89
90
85
94
96
79
76
70
82
68
60
71
88
88
83
85
79
87
81
87
84
82
94
89
103
107
113
90
109
96
104
104
113
40
39
34
35
32
30
30
27
25
29
28
30
26
29
30
34
38
37
41
48
47
44
39
44
42
41
42
50
59
61
75
63
70
64
83
80
82
83
94
99
90
81
81
78
84
86
78
82
85
68
87
78
80
80
81
75
74
82
74
87
80
81
82
92
83
96
89
87
85
85
76
85
86
59
58
69
70
78
83
79
68
100
94
85
88
92
81
93
107
77
84
88
87
72
86
98
107
93
87
102
38
31
30
29
27
24
27
25
30
30
30
31
34
36
41
37
38
44
39
38
39
39
37
37
35
34
29
33
33
40
45
53
71
69
58
84
75
69
63
78
78
77
78
81
71
58
71
63
66
76
86
79
79
82
89
71
80
87
79
74
93
85
80
84
85
79
86
77
76
82
73
80
69
64
73
73
73
70
77
70
74
91
68
72
73
85
71
90
70
72
78
81
73
89
85
99
95
99
101
87
27
23
27
35
35
24
27
31
44
37
39
39
39
40
39
41
40
39
36
35
32
33
29
32
34
35
38
40
33
38
36
40
50
59
59
67
88
59
77
67
64
71
80
74
75
80
75
73
88
75
85
73
86
75
72
89
77
79
80
76
74
62
81
92
86
92
88
85
77
79
88
80
81
89
83
86
90
85
75
89
78
76
76
61
72
84
86
82
82
76
74
82
86
81
71
91
80
99
111
88
32
26
26
28
26
25
29
23
28
39
36
33
37
37
34
37
39
35
34
37
28
37
37
34
29
34
33
31
29
32
33
33
29
37
42
50
60
81
75
71
80
56
71
87
88
68
71
86
90
87
88
89
93
81
78
84
77
84
89
82
94
95
79
81
83
84
95
95
82
84
78
88
83
86
86
96
92
85
80
73
81
89
82
73
57
88
75
83
88
82
78
73
73
67
82
74
84
77
78
79
29
24
23
21
26
28
28
35
45
32
39
34
32
34
33
36
38
33
36
37
32
26
27
28
32
32
32
30
37
33
29
26
36
33
38
39
30
54
63
60
60
61
85
70
70
80
91
93
82
93
79
85
74
65
68
66
72
72
75
81
90
84
83
81
93
89
82
83
86
95
89
93
89
90
93
94
96
85
84
75
70
90
80
90
76
71
93
94
94
71
64
77
64
65
72
79
76
83
85
72
20
18
29
33
39
37
43
32
32
40
34
29
33
32
34
36
32
33
32
30
28
25
32
33
31
18
20
34
38
39
41
33
29
25
33
35
33
34
52
54
69
74
61
55
73
79
81
87
77
63
74
73
68
72
63
71
64
68
70
73
77
73
75
70
79
98
86
83
80
86
86
84
88
78
98
94
81
80
81
67
75
82
64
68
92
75
91
96
70
86
93
72
84
69
78
79
93
92
81
106
31
31
31
32
33
34
38
41
40
40
30
27
33
34
31
21
26
28
34
38
37
30
37
32
32
28
30
36
33
30
32
31
29
35
39
37
32
30
32
28
24
42
53
58
77
73
86
88
74
66
74
79
76
83
84
90
76
70
78
82
68
70
80
71
74
81
90
98
84
77
70
79
84
86
92
93
89
84
85
86
89
78
82
80
89
96
82
94
75
70
90
88
94
83
77
77
80
90
84
80
32
30
36
40
38
37
41
36
36
34
35
32
32
29
30
28
32
35
35
30
33
34
32
27
33
34
38
37
34
29
27
32
35
37
38
35
39
29
31
19
36
30
35
50
47
60
63
64
68
59
47
64
73
82
82
86
60
59
51
61
65
60
57
68
71
84
78
82
80
78
80
70
80
77
88
94
95
85
85
95
85
73
92
76
106
100
67
82
94
80
88
75
68
52
63
83
82
74
80
86
35
39
41
37
39
38
33
36
36
32
26
36
39
39
37
39
36
38
38
35
31
29
32
30
31
27
33
35
39
29
29
38
33
35
24
26
43
35
31
34
31
30
29
19
26
29
40
59
56
52
64
75
73
69
59
59
55
47
46
46
60
74
77
74
68
84
80
74
81
83
76
76
69
74
90
81
70
84
81
91
84
81
83
81
83
85
78
85
82
75
69
53
58
37
54
68
86
94
86
92
34
39
31
38
34
37
31
30
35
33
33
35
36
34
35
34
34
31
28
34
38
31
33
29
24
36
35
31
27
30
35
32
36
35
33
35
27
35
38
33
20
21
23
23
29
23
34
40
34
53
61
58
65
60
72
72
67
43
43
47
62
68
80
85
68
83
77
86
83
71
87
80
78
72
78
88
87
95
85
84
77
70
93
91
78
79
88
66
76
79
78
69
54
64
69
98
93
84
87
86
33
34
34
30
31
30
33
35
35
36
33
38
25
32
32
33
34
30
39
41
36
38
35
32
34
31
32
27
29
30
28
25
29
28
28
30
26
34
30
22
28
28
23
28
33
33
33
37
43
43
46
55
68
71
66
69
57
67
77
79
85
72
86
73
82
66
86
88
65
66
91
75
70
71
72
78
79
99
83
80
77
88
93
87
76
87
79
87
83
89
85
85
77
87
70
87
71
78
87
81
