P2
# CREATOR: GIMP PNM Filter Version 1.1
10 7
255
221
186
165
182
175
175
171
183
183
217
150
98
109
176
171
142
161
184
173
214
59
61
68
104
71
111
150
191
205
222
65
68
65
76
69
85
100
145
161
176
64
67
84
83
78
74
73
103
152
187
39
44
64
77
74
76
79
78
78
138
33
34
33
43
61
75
78
84
81
80
