P2
# CREATOR: GIMP PNM Filter Version 1.1
50 33
255
225
225
224
221
219
214
208
202
200
195
191
185
180
180
175
169
168
166
164
166
168
170
175
173
173
174
173
170
169
169
168
169
163
120
143
175
236
149
208
184
168
194
238
192
153
199
217
234
236
236
224
223
224
222
218
213
210
205
162
193
196
192
189
188
190
188
174
167
167
173
171
173
175
174
175
176
175
174
170
171
172
173
150
172
175
169
239
149
208
181
216
216
166
140
239
177
198
236
235
236
229
225
221
219
217
213
210
207
179
135
134
172
193
194
193
188
186
185
181
178
172
172
173
171
173
174
176
175
176
175
176
175
139
145
174
169
237
150
202
229
204
150
208
195
182
217
106
230
237
233
231
226
219
216
211
183
174
205
188
127
112
112
147
185
196
194
191
187
184
182
177
175
179
178
180
181
181
181
180
180
177
173
169
158
176
168
238
164
216
192
169
224
213
201
144
157
114
232
237
233
229
226
219
215
206
147
123
110
139
111
115
92
99
155
187
193
191
189
187
183
182
178
178
181
183
180
179
179
181
183
182
186
178
167
174
166
223
230
164
174
205
185
237
151
119
186
157
234
233
239
228
225
218
214
172
116
130
108
93
79
102
118
119
76
120
196
195
194
190
183
186
185
182
179
180
181
180
181
179
180
139
119
140
179
172
188
219
154
227
173
186
168
233
157
133
182
159
231
234
238
230
220
220
217
154
112
72
93
105
107
166
132
128
181
171
193
189
189
187
186
183
185
184
184
185
124
122
166
185
184
197
147
150
175
172
198
199
197
220
165
151
185
230
156
130
184
166
231
235
236
65
87
113
119
126
152
119
95
135
106
99
84
102
96
107
122
187
188
187
186
184
184
185
173
147
129
132
147
139
132
114
103
112
173
138
192
221
150
204
158
154
185
230
159
141
183
198
235
234
233
62
70
87
77
76
75
85
70
63
64
48
65
73
75
90
127
172
183
181
181
175
175
175
165
95
81
72
99
100
102
143
144
149
199
154
174
229
140
212
160
155
189
234
159
145
182
196
233
231
231
57
67
115
71
65
65
47
49
58
60
86
107
91
61
127
188
185
182
180
157
89
68
81
150
112
105
111
126
116
152
149
140
176
171
164
158
232
140
212
161
156
193
231
158
144
183
183
231
232
229
54
58
62
90
93
40
39
48
63
68
66
66
65
76
123
156
162
187
142
82
78
96
60
58
138
137
125
136
112
91
123
152
152
179
163
166
230
142
213
156
154
186
231
159
151
178
190
231
233
233
39
45
73
75
83
97
52
54
87
79
58
61
59
61
78
75
71
123
142
76
66
65
61
49
91
123
105
125
125
97
115
134
171
170
164
166
228
161
215
186
197
213
231
217
242
244
241
235
234
233
33
45
53
63
82
91
47
52
67
46
39
39
56
53
54
64
78
152
77
62
60
47
41
41
63
105
99
96
116
118
140
112
161
193
158
230
230
236
221
218
241
222
231
216
242
240
240
234
231
230
31
40
63
63
75
84
51
41
61
44
55
55
54
48
48
49
65
108
58
41
47
50
57
45
56
67
65
126
156
156
152
102
122
203
133
201
194
192
191
205
206
204
211
220
228
213
217
204
213
221
34
47
73
49
64
59
73
75
60
44
63
54
52
49
44
60
76
128
102
53
36
36
34
44
80
107
60
169
187
163
111
79
117
161
120
149
146
144
195
167
162
181
174
171
193
191
187
174
172
180
29
47
73
48
53
52
60
54
34
24
46
50
42
38
70
46
55
64
53
57
47
34
64
69
62
83
87
172
171
139
103
83
98
169
93
122
130
127
197
147
135
198
197
181
69
79
188
175
176
198
56
55
68
95
93
40
36
40
40
33
47
42
41
36
35
33
37
38
38
37
75
35
33
32
36
38
46
63
77
55
50
49
108
195
62
96
130
136
195
142
130
200
186
174
99
119
188
172
182
197
76
92
99
105
111
119
123
121
75
106
117
117
100
110
115
116
113
118
115
110
107
78
84
87
92
97
93
89
83
74
65
66
74
81
47
127
120
154
200
148
132
196
187
182
102
90
195
189
181
186
68
69
68
65
61
64
79
83
65
63
42
39
67
84
99
101
104
106
109
102
97
84
87
78
68
53
53
49
52
45
46
55
48
44
44
54
69
157
204
189
156
196
192
179
103
92
187
206
208
206
62
68
73
84
99
106
69
27
52
73
107
113
117
117
115
105
102
97
91
85
71
68
59
41
42
44
43
42
42
54
45
51
60
61
74
81
76
117
168
193
211
213
197
181
108
89
193
200
196
198
122
112
67
39
62
93
105
116
102
104
92
89
81
92
92
85
84
82
86
79
67
78
85
88
86
90
96
94
79
74
86
84
99
77
84
78
92
98
84
125
168
193
205
214
192
152
184
187
200
190
34
18
64
84
75
64
68
67
67
73
80
93
98
100
93
81
79
85
87
88
89
86
93
94
95
97
87
78
82
83
80
84
79
84
87
89
86
94
102
103
93
126
181
200
201
196
195
186
179
190
44
76
56
33
30
47
43
47
48
61
68
61
54
45
44
48
51
60
58
63
75
89
89
92
92
92
94
91
91
87
89
87
90
84
80
83
82
82
85
94
96
81
80
130
188
180
191
196
193
205
46
47
48
47
55
54
51
46
52
64
73
73
66
60
64
65
80
84
87
82
86
87
84
84
78
74
76
79
77
84
80
76
78
73
77
71
71
73
74
82
82
78
79
77
98
112
166
194
201
214
39
41
47
41
43
43
40
59
83
86
92
85
82
85
80
61
58
58
58
48
56
57
56
54
56
55
62
63
76
72
69
64
61
57
54
54
88
80
77
78
82
87
98
85
79
86
137
179
194
197
41
42
41
41
38
37
42
44
56
59
49
42
55
67
65
68
77
81
71
77
76
76
81
75
76
82
80
76
73
80
73
87
82
78
80
78
78
70
74
76
85
81
84
91
88
88
95
117
196
184
40
35
36
38
37
34
33
33
35
31
33
49
74
86
91
99
98
95
91
84
85
81
84
83
79
73
68
78
80
84
89
84
83
85
93
84
96
82
77
91
80
70
89
81
87
78
82
90
134
192
35
34
31
32
29
29
29
30
35
32
46
50
48
67
83
83
76
78
84
83
81
85
82
81
86
77
78
77
81
82
85
87
87
88
89
94
76
74
68
88
91
91
94
77
82
86
105
103
99
109
32
30
27
26
33
35
37
40
41
39
36
33
35
34
37
45
62
71
72
77
77
82
74
74
77
77
81
83
79
76
76
82
83
83
81
80
70
77
83
78
80
71
77
85
80
83
81
86
94
97
28
24
27
30
36
36
36
36
36
36
31
33
32
32
33
31
34
45
54
68
64
74
78
85
88
86
75
72
75
82
89
80
86
92
85
86
89
92
89
81
86
79
74
89
80
71
65
75
81
80
26
34
36
38
39
31
33
32
33
31
30
29
26
29
35
35
30
35
34
42
60
55
70
81
66
75
73
79
70
69
71
69
86
87
82
82
81
91
86
76
80
74
88
102
79
85
81
80
97
90
33
40
38
35
35
27
35
31
35
34
30
30
29
37
34
29
35
31
39
29
32
35
44
61
59
59
74
73
56
44
63
64
75
83
79
71
74
87
81
87
81
83
93
74
80
73
45
61
81
90
35
32
33
32
34
36
32
34
33
37
36
34
30
30
31
31
29
31
31
28
25
26
29
37
44
53
65
68
56
68
75
84
76
82
74
83
76
78
89
83
78
92
81
84
83
77
76
83
80
81
