P2
# CREATOR: GIMP PNM Filter Version 1.1
10 7
255
177
162
174
234
255
251
229
219
236
238
151
187
187
156
178
217
215
177
190
198
71
78
89
97
126
119
111
105
110
126
38
55
71
74
94
94
70
65
91
110
59
50
48
58
74
84
87
97
117
123
45
57
63
65
72
75
68
58
58
60
61
58
59
63
65
69
72
67
69
67
