P2
# CREATOR: GIMP PNM Filter Version 1.1
100 67
255
172
175
177
182
183
170
180
187
188
189
163
57
24
45
93
180
186
188
188
189
189
188
189
188
188
188
188
190
183
254
254
254
254
254
254
254
254
254
254
253
253
253
254
254
253
253
252
252
251
251
250
250
250
249
248
248
247
246
246
246
245
245
245
244
243
242
242
242
242
241
240
240
240
239
239
239
238
238
238
238
238
237
237
236
236
235
236
235
235
236
236
236
236
236
236
235
235
234
234
233
173
175
178
180
183
170
178
185
186
189
192
192
76
28
32
64
173
185
186
187
188
187
188
187
186
186
187
187
186
196
255
254
254
254
254
254
254
254
254
254
254
253
253
253
254
254
254
253
253
251
251
250
250
249
248
247
246
245
246
246
245
244
244
244
243
243
243
242
242
242
241
241
241
240
240
237
239
239
238
238
238
238
238
238
238
238
237
237
236
236
236
235
236
236
236
236
235
235
235
235
173
174
177
179
180
171
178
187
188
190
193
193
194
134
24
27
64
152
185
185
186
186
186
186
186
186
185
186
185
183
233
254
254
254
254
254
254
254
254
254
254
254
254
253
252
252
251
251
252
252
251
250
250
249
248
247
247
247
246
246
245
246
245
244
243
243
243
243
243
242
242
241
241
241
241
190
244
239
239
239
240
239
239
239
238
238
237
236
235
236
236
236
236
236
236
236
236
237
237
237
173
175
179
179
181
170
176
187
190
191
193
194
195
201
167
50
26
52
140
185
184
186
186
185
185
185
185
184
184
186
178
252
254
254
254
254
254
254
254
254
254
254
254
253
253
252
253
253
251
251
251
251
250
250
250
249
248
247
247
246
247
246
245
244
244
244
243
243
227
243
242
242
241
241
218
187
220
239
239
239
239
239
239
239
238
238
237
237
237
236
236
235
235
236
236
236
236
237
236
237
172
175
178
183
183
173
176
186
189
191
193
194
196
197
198
201
72
26
51
129
184
184
185
185
185
184
184
183
184
184
185
193
255
254
254
254
254
254
254
254
254
254
254
254
254
254
253
253
253
252
251
251
250
250
250
250
250
249
249
247
247
245
245
246
244
243
243
239
212
200
237
235
241
241
204
189
237
239
240
240
240
241
240
240
239
238
238
238
237
236
236
236
236
237
237
237
237
237
237
236
174
175
177
180
182
173
175
186
188
191
193
195
197
198
199
200
200
111
26
37
99
190
183
184
184
184
184
183
183
182
183
179
229
255
254
254
254
254
254
254
254
254
254
254
254
253
253
253
253
252
252
252
252
251
251
250
250
248
249
248
248
248
248
248
247
246
224
201
186
165
163
235
208
232
190
158
161
240
240
240
240
240
240
239
239
239
238
238
236
236
236
236
236
236
236
237
238
238
238
238
179
178
180
182
184
175
177
187
190
191
193
195
197
199
199
201
203
193
161
40
30
86
183
183
183
183
182
183
182
182
182
183
178
250
254
254
254
254
254
254
254
254
254
254
254
254
254
254
253
253
252
251
251
252
252
251
251
250
249
249
249
249
248
248
247
247
239
157
159
174
163
195
200
210
127
150
230
241
241
241
241
240
239
239
239
239
239
238
238
237
237
237
238
238
237
237
238
238
239
238
111
160
182
183
184
177
177
187
189
190
191
194
195
199
199
202
204
190
206
206
71
25
61
169
183
182
182
182
182
182
181
182
181
193
255
254
254
254
254
254
254
254
254
254
254
254
254
254
254
254
254
253
253
252
252
252
251
251
250
249
249
231
212
229
246
245
202
188
166
140
143
162
158
197
144
162
179
237
241
241
241
240
240
239
239
238
239
238
238
238
238
238
238
238
238
239
238
239
239
239
175
130
86
160
188
180
176
189
190
191
192
194
196
199
200
202
203
188
203
205
209
119
30
53
159
182
181
182
181
182
181
182
181
182
217
254
254
254
254
254
254
254
254
254
254
254
254
254
254
254
254
253
253
252
252
252
251
250
250
249
249
250
200
192
250
197
177
204
148
162
162
106
165
174
171
167
190
238
240
240
239
239
239
239
239
239
239
239
239
239
240
240
240
240
240
240
239
239
239
239
178
181
177
146
104
130
179
190
192
193
195
196
198
200
200
202
205
191
207
209
209
213
162
35
46
136
183
181
181
181
181
181
181
180
178
250
254
254
254
254
254
254
254
254
254
254
254
254
254
254
253
253
252
252
251
251
250
249
249
248
247
248
208
186
240
195
144
148
143
136
186
219
213
196
217
233
235
243
217
226
241
241
240
240
240
240
240
240
240
240
239
239
239
239
239
238
238
238
240
240
178
179
180
181
186
143
108
139
179
193
193
195
197
199
199
201
204
192
207
209
210
211
212
185
60
38
126
182
180
180
180
181
180
180
180
186
254
255
254
254
254
254
254
254
254
254
254
254
254
253
253
252
252
251
251
250
250
249
248
247
247
247
250
208
207
205
162
126
117
108
158
130
113
163
123
212
241
153
203
202
241
241
240
240
240
240
240
240
240
239
239
239
239
239
239
239
239
239
239
240
178
178
179
179
180
182
183
177
106
131
184
192
195
198
199
200
202
190
206
210
210
213
214
203
218
87
32
102
182
180
180
180
180
180
179
178
229
165
255
252
252
254
254
254
254
254
254
254
254
253
253
252
252
251
250
250
250
249
248
248
248
248
228
167
196
176
159
198
182
161
114
161
124
131
150
186
194
132
154
191
240
240
240
239
239
239
239
239
238
237
237
237
238
238
238
237
237
238
238
239
181
182
183
184
184
185
184
186
187
177
146
107
181
202
199
201
202
188
204
208
209
212
215
206
219
220
158
28
75
183
179
180
180
180
180
180
180
148
129
113
112
199
255
254
253
253
253
252
252
252
252
253
252
251
251
251
250
249
248
249
248
217
169
173
119
145
146
149
119
123
181
181
226
235
195
130
122
156
165
200
224
242
241
240
240
240
239
178
238
238
238
238
238
238
239
239
239
239
239
239
181
182
184
184
184
186
185
185
186
188
192
191
143
132
162
204
202
189
205
208
210
214
217
208
223
221
225
190
56
58
165
182
180
180
180
181
182
175
155
107
85
83
165
208
216
221
224
230
241
245
250
227
253
251
251
251
250
249
250
249
249
245
205
219
226
194
210
203
238
217
198
140
242
228
167
178
197
145
189
182
202
193
231
240
240
241
216
200
238
238
238
238
239
239
239
239
239
239
239
239
178
179
179
180
182
183
181
183
184
184
185
185
186
182
170
114
177
184
207
209
211
213
215
205
220
220
223
221
219
85
42
152
180
181
180
181
181
185
159
146
96
76
81
81
80
83
85
87
86
85
80
151
255
252
251
251
251
250
250
249
249
249
248
248
247
249
245
240
233
211
212
116
193
167
149
182
130
122
148
156
162
184
223
239
222
194
184
208
237
237
238
238
238
238
238
238
237
237
237
238
176
176
178
174
174
181
180
181
183
184
185
184
186
178
193
195
191
141
153
210
212
215
217
207
220
221
223
223
223
227
113
39
125
181
180
180
181
182
179
163
135
92
77
81
84
85
81
80
80
85
87
103
255
251
251
251
250
250
250
250
249
247
247
247
225
232
193
217
203
198
239
214
203
228
184
148
141
135
182
158
145
212
179
221
178
197
184
239
236
235
234
235
235
235
235
235
235
236
237
238
112
113
111
110
92
124
126
128
139
183
187
184
187
179
194
196
199
206
193
169
158
203
218
206
219
220
222
221
222
228
81
55
39
103
183
180
180
181
180
164
154
111
76
90
93
90
73
76
79
84
86
84
228
252
252
252
250
250
249
249
248
248
248
248
205
219
192
221
210
200
199
224
179
246
202
217
171
140
136
142
193
190
163
134
156
131
198
164
172
174
167
165
163
158
155
149
149
145
141
143
72
72
72
71
70
71
67
66
74
174
181
185
182
175
198
200
203
204
206
210
216
153
168
189
222
183
216
220
220
224
51
70
62
36
87
174
179
181
179
165
160
136
97
127
145
128
60
68
67
72
93
70
207
251
250
249
248
248
247
247
247
248
248
240
212
180
230
200
191
200
218
238
177
219
166
149
153
151
141
142
110
99
107
93
107
95
90
103
86
81
77
85
80
80
83
79
80
78
89
75
85
76
72
70
68
69
64
85
112
135
154
145
181
155
200
201
202
203
203
207
209
194
212
204
156
106
207
220
219
159
43
101
65
50
44
57
175
179
178
165
161
154
100
112
144
124
63
69
65
79
148
67
190
251
250
250
249
249
248
248
248
217
225
183
199
164
201
158
155
171
182
225
193
193
123
161
143
144
120
95
125
111
109
118
105
118
119
78
68
73
77
144
71
74
74
66
74
82
172
68
100
91
87
79
78
74
68
78
81
75
72
61
91
116
172
195
178
208
210
215
167
163
224
203
124
55
93
174
228
104
46
67
53
50
52
46
50
156
178
165
162
157
127
78
81
85
64
67
66
71
98
68
173
252
252
247
234
251
249
249
248
240
193
103
113
129
200
193
157
163
179
202
180
151
140
138
148
142
120
97
137
91
82
111
125
120
126
117
103
128
110
151
123
122
100
93
105
106
160
94
100
83
84
83
81
91
91
90
82
80
79
69
67
73
80
109
104
129
124
79
93
85
98
80
76
83
80
74
115
70
62
63
66
65
70
71
69
51
146
157
159
153
138
85
82
86
87
82
81
80
77
76
141
217
213
206
193
201
217
215
214
188
94
99
114
103
135
165
131
109
149
161
137
121
139
130
132
167
144
140
124
125
118
127
132
155
114
149
102
137
146
103
165
129
142
171
140
159
173
151
80
78
78
75
81
87
84
82
91
86
84
72
72
78
80
75
77
79
70
90
93
89
89
84
88
106
93
89
88
97
82
85
102
90
113
103
101
95
143
135
141
136
146
96
121
119
114
116
114
113
102
110
121
134
131
134
133
133
126
131
126
132
111
109
105
108
144
135
112
94
114
150
129
127
102
147
156
124
150
129
150
149
120
109
101
159
120
122
86
127
129
58
155
96
109
162
101
137
167
107
80
79
76
78
81
83
87
88
91
83
78
70
77
79
86
83
78
72
57
75
88
82
77
76
78
91
79
81
81
82
98
97
104
88
115
122
117
107
129
169
147
139
146
105
132
145
141
139
131
128
119
125
117
125
108
116
111
124
95
104
122
98
114
102
131
90
126
108
80
106
116
98
92
88
133
121
117
120
94
117
150
152
111
100
95
106
101
118
101
129
128
85
155
103
117
159
111
138
165
113
78
77
73
74
80
82
78
83
86
82
80
69
69
71
78
76
87
68
71
83
88
81
89
80
99
96
96
84
76
76
93
96
100
96
92
97
92
94
133
137
132
126
129
97
112
126
125
122
123
125
146
123
113
121
104
111
99
116
80
109
116
120
98
95
107
88
80
67
97
93
76
76
91
88
103
117
93
103
95
108
136
134
135
113
83
95
92
137
110
138
138
135
152
144
143
163
145
158
166
144
79
77
76
77
75
86
78
74
72
86
85
69
66
70
55
74
71
67
54
74
80
78
76
80
80
87
78
76
75
87
96
95
107
105
115
118
109
91
148
151
149
146
145
111
134
140
141
137
137
136
158
135
113
115
93
107
104
113
96
102
111
107
114
100
123
106
112
100
72
100
78
110
99
79
86
89
93
77
91
99
88
101
112
107
95
114
103
139
100
107
128
98
119
127
156
157
139
157
163
132
64
62
63
62
68
76
70
67
75
78
71
66
65
68
50
70
70
64
51
71
77
77
75
78
79
85
70
72
71
83
91
84
105
102
100
112
100
100
142
116
138
115
144
110
132
113
120
116
137
133
124
128
108
109
86
101
100
106
92
83
73
108
99
100
102
93
102
98
98
83
85
87
92
60
67
78
80
88
122
91
94
93
119
96
124
94
102
101
110
119
121
95
145
123
129
156
121
149
161
121
44
46
51
66
65
67
61
59
56
73
70
67
62
62
62
65
64
63
65
74
80
75
71
71
77
87
73
72
68
82
97
97
103
99
96
109
102
95
141
103
96
112
139
107
137
100
90
103
135
130
121
127
104
103
81
97
96
109
85
61
85
72
93
62
72
77
81
78
66
58
56
68
88
66
64
83
79
85
111
117
127
137
108
132
92
84
96
80
97
88
93
88
116
121
134
157
134
146
161
128
19
20
35
37
29
34
30
31
37
44
49
61
53
60
54
55
43
54
52
51
64
72
74
78
79
72
67
61
54
83
96
89
100
95
103
113
85
88
140
97
119
107
137
104
132
97
88
102
134
128
114
126
99
95
72
75
75
97
90
81
74
67
62
69
52
69
75
83
82
76
71
63
60
62
72
50
55
64
75
93
108
79
82
102
120
119
83
105
97
107
102
137
120
116
139
153
97
155
159
118
27
26
31
27
29
38
33
41
39
52
55
63
57
60
35
46
46
47
50
77
82
93
98
93
95
95
91
71
52
91
98
83
106
92
89
88
80
87
136
124
121
122
134
103
111
114
113
115
130
125
104
122
82
61
84
135
150
159
146
106
73
61
72
60
57
57
65
61
64
84
58
68
64
61
69
62
53
71
55
68
80
88
80
83
90
91
103
96
96
103
98
92
95
114
138
147
120
150
155
121
28
25
24
29
32
40
37
41
41
50
54
63
61
62
43
49
52
64
63
81
80
83
86
87
85
92
92
90
90
98
101
83
109
92
105
103
86
95
137
137
138
132
131
100
118
120
122
122
126
123
96
116
101
134
137
139
143
146
107
111
118
83
67
54
83
58
80
61
88
82
67
86
85
43
65
80
71
80
60
98
83
76
63
116
106
130
123
110
112
94
101
85
138
94
107
147
102
128
151
104
30
28
30
36
38
44
37
39
42
49
53
62
63
63
61
60
55
63
66
85
87
91
93
94
87
96
99
97
95
104
99
90
101
87
76
91
58
90
127
107
116
102
132
99
99
95
108
100
126
114
114
116
119
148
149
148
148
144
123
79
69
78
71
55
56
66
60
82
83
71
101
82
74
66
60
61
78
50
77
66
75
76
87
89
112
90
102
125
93
133
123
113
138
114
132
143
136
145
150
128
38
32
35
37
39
43
40
39
38
47
51
60
63
65
56
56
56
49
49
49
57
87
85
87
78
81
87
86
84
96
99
83
101
84
69
104
55
103
123
119
145
147
159
108
140
77
116
100
124
117
105
118
109
133
134
131
132
129
111
84
65
52
64
65
53
50
69
66
73
58
62
69
67
62
52
54
71
60
66
62
51
61
92
86
96
83
108
156
97
133
102
90
132
96
122
138
119
130
145
109
33
26
33
39
41
48
42
41
38
49
52
59
65
65
45
54
57
46
50
55
52
65
64
69
70
89
81
73
79
82
73
64
75
66
72
75
63
72
100
108
119
101
101
77
90
87
89
90
94
93
87
91
111
132
110
124
123
100
89
92
77
65
61
52
59
47
70
52
50
89
80
56
55
47
72
69
74
68
85
70
74
78
80
84
81
102
97
79
93
97
116
68
126
79
92
138
88
117
143
90
39
26
23
35
41
44
36
37
34
40
45
54
58
59
52
54
58
44
47
57
57
84
75
65
67
89
75
75
72
91
76
61
80
63
74
70
71
68
83
85
84
84
82
75
95
94
94
95
94
95
69
95
113
129
103
95
91
70
75
67
67
65
55
53
101
75
64
63
76
50
52
60
52
62
58
57
73
63
49
63
63
61
64
68
91
79
82
87
90
105
106
82
124
102
103
134
89
104
116
107
35
33
33
33
44
43
34
35
30
37
41
51
55
55
53
50
37
35
46
50
60
88
79
72
64
86
72
84
81
79
60
58
45
52
25
58
46
46
62
86
63
57
85
83
23
82
49
20
90
94
84
91
107
125
113
82
59
59
75
62
91
58
62
57
79
58
60
69
62
56
54
62
58
44
51
65
52
41
75
60
65
68
75
80
86
103
65
119
72
85
75
35
108
79
73
123
53
92
128
74
43
41
40
42
42
34
34
39
33
43
43
50
60
56
55
54
36
35
38
41
51
74
68
62
56
69
53
47
47
61
52
53
50
50
33
41
45
42
47
61
74
89
54
79
11
85
37
20
88
87
77
82
92
111
101
92
99
93
68
66
62
35
59
44
49
57
48
57
55
48
58
51
35
29
57
59
69
62
65
73
62
59
67
91
98
85
65
91
88
115
127
80
125
97
71
121
61
98
122
84
38
40
48
47
48
48
41
39
37
46
46
56
67
61
59
56
45
34
35
52
55
54
56
55
43
42
41
45
37
39
46
41
43
42
39
42
37
58
48
50
49
51
54
58
54
61
59
58
61
61
60
61
61
67
69
77
79
80
78
68
59
60
60
65
60
67
63
63
51
49
74
74
70
34
57
76
67
72
68
68
52
47
53
78
74
63
74
75
89
126
145
111
163
133
164
116
69
76
68
61
56
46
44
49
52
54
52
51
36
46
51
62
67
65
64
58
49
49
43
53
56
59
48
55
51
51
53
47
38
45
54
48
41
42
43
48
70
54
52
55
61
64
65
67
67
68
71
73
76
78
82
83
86
88
89
88
75
76
81
66
61
62
56
58
54
69
91
90
90
89
56
72
72
33
68
84
99
98
76
78
72
73
72
60
75
97
127
149
149
140
140
121
155
98
97
117
151
165
168
161
67
61
60
48
52
56
56
55
42
52
46
60
67
61
57
54
57
44
34
52
53
52
45
50
48
45
50
45
38
34
44
44
36
18
50
64
60
60
60
60
63
63
64
61
63
67
68
68
72
73
76
79
81
84
83
86
91
79
73
80
88
80
91
70
81
97
102
104
105
105
104
104
53
44
64
81
105
104
93
87
57
76
77
66
105
111
111
112
120
130
144
157
167
176
184
184
186
187
187
186
66
66
66
60
53
46
50
50
41
51
49
53
57
59
61
54
40
38
34
45
47
49
44
49
46
41
33
45
34
25
33
24
25
10
44
58
61
60
61
61
63
65
63
65
69
69
70
73
76
75
77
81
79
82
83
87
86
89
89
93
95
100
97
98
95
97
102
102
101
102
104
108
96
28
108
109
112
112
115
121
123
127
123
126
125
124
122
126
122
125
129
128
130
129
127
126
130
132
137
146
69
68
65
66
63
55
44
49
45
52
55
60
69
68
62
51
40
37
30
42
46
47
45
49
46
32
22
41
31
28
43
17
17
34
55
58
59
62
64
66
67
66
67
67
70
68
71
74
78
80
80
87
90
86
86
85
86
89
91
91
91
93
96
97
101
100
96
96
99
106
104
104
89
31
109
112
112
111
109
108
109
110
110
113
114
116
116
117
114
110
111
112
112
113
117
119
121
120
117
117
71
66
64
58
52
55
59
63
63
59
57
65
70
65
55
49
43
38
31
45
49
50
42
45
39
29
21
38
30
43
71
13
23
60
60
62
63
65
66
66
70
69
69
69
71
72
73
76
77
78
82
94
106
116
121
124
119
108
97
96
99
96
100
98
100
97
95
100
100
90
90
98
88
35
104
106
105
101
107
105
104
105
107
111
106
106
109
108
109
108
108
109
110
112
117
111
112
112
107
109
47
54
57
68
65
67
67
62
61
62
54
62
55
56
53
48
43
36
31
45
48
45
40
41
43
32
31
47
61
57
48
47
53
60
63
62
64
68
67
68
67
67
70
71
75
72
74
75
77
80
79
81
84
90
88
91
86
88
92
94
91
89
91
94
92
95
102
100
96
95
102
96
74
41
113
128
140
157
161
161
160
154
154
151
150
140
127
115
107
107
110
107
107
108
111
109
110
113
115
111
65
43
68
67
66
63
62
63
61
59
57
49
52
54
51
46
43
34
29
44
45
43
42
48
37
34
62
69
52
59
60
61
62
63
64
65
64
65
69
68
68
69
70
75
77
73
75
73
76
77
80
78
78
81
78
80
85
85
83
83
84
89
97
96
97
93
94
103
107
106
102
94
74
44
88
93
92
97
110
117
129
138
150
155
163
170
171
168
169
162
156
149
144
133
108
84
101
110
109
110
68
47
65
62
66
64
59
66
55
49
47
51
54
55
51
46
42
34
30
43
43
47
33
32
49
76
73
52
61
60
61
67
66
66
69
71
68
72
81
82
71
69
73
76
92
79
81
79
79
81
79
76
79
79
79
80
78
82
85
81
82
81
80
81
87
90
104
103
92
103
97
110
76
50
100
98
95
87
85
97
101
105
103
97
102
112
133
146
160
165
174
173
170
162
51
29
125
173
176
169
64
46
70
60
66
59
52
51
50
49
49
53
55
53
49
44
41
34
30
44
38
30
41
66
88
53
58
62
61
61
66
63
65
68
70
86
87
76
72
78
77
72
72
69
76
73
76
76
79
81
88
81
80
80
75
75
79
77
80
73
74
79
75
82
83
73
76
89
86
94
109
90
65
47
93
96
91
89
95
92
89
79
93
96
98
95
96
102
103
102
108
112
133
143
12
12
65
165
139
143
66
43
67
60
54
51
48
48
47
45
46
46
46
50
47
41
39
50
47
42
35
53
80
75
57
64
63
60
60
63
63
64
64
64
64
65
70
73
72
72
72
79
78
71
74
70
72
72
75
81
99
112
92
83
76
78
71
74
71
71
80
74
78
83
77
77
75
81
79
76
81
90
61
41
83
87
83
95
93
96
93
89
83
89
86
95
97
95
98
100
98
92
98
91
65
82
99
96
102
101
68
41
54
52
50
46
45
46
46
43
44
46
49
48
43
47
47
29
36
52
69
87
64
58
62
64
59
62
63
65
63
63
65
65
64
63
66
71
94
85
73
71
80
89
83
78
75
67
74
72
75
80
93
106
94
83
88
76
76
79
77
75
74
80
75
73
74
74
80
79
78
76
60
35
81
86
82
83
83
88
80
82
88
92
91
85
82
92
87
92
94
93
92
101
103
103
103
106
107
109
51
34
47
46
44
44
45
44
43
42
44
46
43
50
53
29
24
38
50
85
83
48
57
63
59
60
60
63
62
62
63
62
60
61
64
63
64
67
66
80
90
79
75
70
78
76
85
76
74
72
70
74
75
88
93
89
109
99
80
85
75
74
75
67
71
73
70
76
64
64
56
67
50
30
71
73
82
76
83
80
80
82
86
85
82
83
83
84
83
82
79
87
91
91
92
96
97
101
100
103
49
31
44
44
45
44
43
41
42
42
42
51
60
38
27
31
47
69
86
55
57
59
59
59
59
56
65
59
62
62
62
61
62
66
66
63
63
66
64
67
72
84
91
93
74
69
73
83
81
78
74
74
74
74
73
77
81
84
89
80
77
75
68
70
64
69
61
68
63
62
62
52
48
26
44
66
66
72
66
63
75
76
76
77
76
78
81
80
81
79
80
79
75
71
75
79
87
88
74
67
46
30
45
44
43
42
43
49
47
49
56
48
25
27
42
66
90
77
51
57
61
61
57
58
63
65
60
63
59
62
60
61
61
61
65
66
69
66
61
68
66
66
76
81
87
85
77
72
80
86
86
72
75
72
72
70
74
73
75
74
76
74
67
71
70
64
66
58
61
62
67
58
56
52
52
68
65
47
59
65
73
75
76
77
75
75
76
78
80
80
79
84
81
70
66
53
42
74
62
47
46
30
42
43
43
46
45
49
54
55
46
29
37
63
83
85
66
50
64
63
63
62
63
62
64
62
61
59
60
64
62
60
68
63
61
62
65
66
66
58
66
64
69
67
72
68
69
71
77
73
75
80
79
75
75
69
73
75
72
75
70
74
67
64
71
65
65
67
62
60
59
59
57
60
51
49
41
51
59
61
54
67
72
76
77
79
75
77
77
77
72
50
44
46
61
59
50
45
42
42
45
29
43
46
42
41
54
49
35
52
47
53
74
82
85
47
61
57
62
55
61
63
62
62
64
65
58
60
59
60
60
61
61
68
66
61
59
61
62
62
70
68
68
75
67
70
70
76
71
74
69
71
75
69
67
66
72
70
73
71
74
69
70
68
69
69
69
62
62
67
64
62
56
61
51
49
45
57
54
56
47
27
31
43
64
79
78
64
52
49
51
52
49
41
41
33
40
46
45
45
44
29
42
40
51
51
34
25
32
59
71
84
84
64
48
60
56
57
59
59
59
61
58
61
60
57
59
58
60
61
62
61
67
63
63
63
61
61
62
63
67
69
69
64
64
69
66
68
64
70
67
70
72
71
69
69
67
66
71
71
71
71
70
71
68
66
68
69
64
63
57
60
58
61
61
51
42
58
62
78
24
15
24
30
28
37
56
56
54
45
36
39
47
45
48
41
44
43
43
37
42
27
49
57
40
26
26
33
51
73
87
84
50
55
60
65
61
59
58
60
62
61
57
64
59
61
58
57
60
63
62
62
63
59
68
69
55
60
65
64
68
67
68
75
68
70
69
71
74
70
68
69
70
75
68
76
73
74
73
76
68
71
71
77
71
68
67
69
66
65
62
58
55
54
48
47
46
54
62
64
12
7
6
10
20
36
51
33
26
29
27
29
33
36
34
39
49
50
47
55
46
36
40
26
26
28
47
56
80
84
70
44
59
61
60
62
62
58
63
62
57
60
60
58
51
59
63
56
59
64
63
58
62
63
71
62
62
65
64
64
65
67
71
71
65
66
72
62
69
63
74
69
70
70
71
70
68
77
74
68
68
64
67
68
76
69
80
70
66
67
68
62
57
60
51
35
42
53
56
45
34
30
26
24
21
30
26
28
28
29
36
39
39
33
37
58
45
53
54
48
43
25
26
25
38
52
75
91
87
52
52
59
62
62
59
63
62
62
63
54
62
59
60
59
59
52
57
56
67
61
64
62
61
67
68
59
62
57
61
59
66
70
65
70
68
68
67
63
63
69
66
67
70
68
64
71
71
68
73
72
66
70
78
69
79
70
70
74
71
69
61
66
69
64
59
53
47
47
47
45
40
46
43
41
39
30
27
33
32
30
34
34
42
39
38
39
45
48
45
46
25
23
32
48
62
86
90
69
43
63
60
63
60
60
62
59
59
60
53
59
59
55
59
59
56
59
58
59
61
66
58
61
64
61
60
61
66
62
58
70
64
66
70
63
70
61
61
65
72
67
68
70
65
70
70
70
71
73
71
71
73
68
69
78
64
70
71
69
68
75
72
70
72
66
65
69
63
64
61
53
48
40
37
38
32
39
43
38
33
34
37
37
40
47
43
42
50
47
50
51
26
34
51
79
85
82
49
57
60
64
55
64
61
60
54
57
58
57
54
55
62
57
54
54
56
57
58
53
62
67
64
68
69
61
62
56
67
63
71
61
77
67
74
59
64
65
60
59
67
68
70
72
64
69
68
67
76
74
75
69
78
73
72
81
69
68
69
67
69
61
68
72
70
73
67
64
72
64
59
58
55
51
43
36
40
43
46
38
43
38
33
36
37
37
38
40
40
50
43
47
46
60
89
91
78
43
55
61
62
62
58
58
62
55
55
58
54
57
53
58
58
60
59
57
57
60
62
60
66
63
64
63
59
56
62
67
60
65
65
66
60
66
63
69
63
65
67
69
66
67
69
65
72
72
71
68
76
71
70
68
70
75
67
88
74
78
72
68
68
70
76
65
71
70
64
71
67
53
59
46
50
52
58
74
63
51
50
45
39
41
39
38
35
41
43
39
40
36
38
43
81
93
95
60
44
61
58
57
62
60
55
63
58
60
54
55
58
55
52
50
55
58
59
54
62
57
61
60
66
61
63
64
55
63
63
55
64
60
59
71
70
65
62
58
63
64
66
61
65
67
59
63
62
73
69
67
71
66
70
73
68
73
67
69
73
72
75
73
73
67
76
69
73
76
77
73
71
61
51
51
52
41
47
96
93
96
89
83
97
93
82
66
83
83
81
69
67
71
54
52
90
90
38
54
64
60
55
60
52
61
58
58
56
59
57
55
54
56
61
58
58
53
56
58
60
60
58
64
60
61
62
59
59
65
54
70
61
58
64
60
65
65
62
61
71
64
63
68
64
63
64
69
67
67
61
71
72
74
72
61
65
66
70
62
70
76
72
75
65
81
76
73
80
72
69
70
77
70
70
49
59
66
58
101
98
104
94
80
95
95
98
93
114
107
118
96
59
42
60
100
56
47
56
56
66
68
55
64
60
57
60
56
57
61
49
52
49
54
59
58
51
62
68
63
62
57
65
57
65
71
57
63
54
68
64
55
53
66
64
60
64
69
60
60
64
72
58
59
66
69
60
70
65
69
71
72
66
73
64
73
70
62
71
68
73
70
65
62
73
70
77
80
78
68
68
77
78
78
63
54
57
56
51
99
102
103
99
103
108
111
113
106
106
60
39
57
97
105
101
62
50
58
57
65
58
60
57
59
56
63
51
61
63
54
50
57
57
59
53
56
55
61
59
61
60
63
56
59
59
56
57
64
58
60
58
63
55
66
67
62
70
62
66
61
66
62
63
64
72
71
64
71
66
70
67
68
70
72
67
69
68
62
64
71
67
72
78
63
67
75
61
69
81
84
80
80
77
78
75
50
50
58
48
96
104
109
105
104
117
111
78
50
64
73
114
105
72
45
43
63
66
62
51
53
60
63
64
52
65
61
63
64
65
54
54
52
56
59
61
59
57
58
63
61
60
61
54
62
66
67
59
61
57
63
61
74
64
62
68
63
68
74
59
60
58
66
71
70
65
64
68
69
71
69
69
69
66
73
70
71
55
65
64
70
73
64
63
67
69
69
75
71
72
68
73
65
80
84
81
72
63
52
54
100
96
106
106
93
66
48
76
98
98
58
43
42
62
97
101
92
56
61
51
62
61
55
59
55
61
63
59
56
58
56
63
58
56
60
68
57
52
56
54
64
57
62
56
63
59
59
63
57
56
67
67
65
63
66
70
72
60
71
61
60
64
58
72
63
66
71
67
66
72
63
70
71
79
70
73
73
65
72
72
73
66
65
69
58
63
79
74
70
78
65
74
61
68
72
70
77
56
78
67
104
93
105
36
84
114
100
61
33
55
54
98
80
89
80
76
71
56
56
53
64
66
68
64
58
63
63
56
56
56
62
59
55
62
60
49
54
56
58
64
64
55
57
54
65
63
54
56
60
60
61
60
62
68
64
64
55
64
62
62
57
62
67
71
61
64
62
55
70
65
61
60
67
65
64
61
70
67
74
64
66
68
57
66
76
68
67
69
74
70
76
69
64
70
64
72
69
62
47
67
102
102
107
73
57
58
65
79
85
89
60
44
40
82
81
81
79
