P2
# CREATOR: GIMP PNM Filter Version 1.1
50 33
255
174
179
177
182
189
147
42
96
185
188
188
188
187
188
203
255
254
254
254
254
254
254
253
253
251
250
249
248
246
246
245
245
243
242
242
241
240
237
239
238
238
237
237
236
236
236
236
235
235
234
174
178
177
181
190
193
195
58
62
178
186
186
186
185
182
235
255
254
254
254
254
254
252
252
251
252
250
249
247
247
246
245
244
243
241
242
241
211
233
239
240
239
238
237
236
236
236
236
236
237
174
179
178
178
190
194
197
199
121
42
165
184
184
183
183
184
247
254
254
254
254
254
254
253
253
252
251
250
250
249
248
247
245
220
189
204
229
191
211
240
240
240
239
238
236
236
237
236
238
237
145
186
182
180
190
194
197
200
194
161
50
142
184
182
182
182
197
255
254
254
254
254
254
254
254
253
253
252
251
250
245
228
247
192
157
160
187
148
216
241
241
239
239
238
238
238
239
238
239
239
173
129
161
175
193
194
198
202
193
206
201
61
131
182
181
182
180
219
255
254
254
254
254
254
254
254
252
252
250
250
252
197
222
177
140
164
188
193
224
232
240
240
239
239
240
240
240
240
239
239
178
179
182
150
140
191
197
200
193
209
212
213
106
96
183
180
180
179
237
251
254
254
254
254
254
253
251
250
249
248
249
222
191
157
139
136
129
157
196
156
242
240
239
240
238
238
239
238
238
239
182
184
185
186
186
176
150
185
194
207
212
217
223
175
67
184
180
180
174
130
103
210
230
234
250
239
252
251
250
249
245
204
197
194
205
171
237
180
159
197
211
237
241
202
239
238
239
239
239
239
181
180
183
187
185
185
181
177
167
186
214
216
219
224
210
61
163
182
181
167
106
68
72
78
79
89
247
251
251
250
249
251
232
221
214
217
197
175
141
154
185
209
197
215
241
244
244
243
240
237
68
67
68
68
136
184
177
200
204
209
172
202
208
217
210
57
39
149
182
171
140
104
127
70
74
89
236
250
249
248
247
243
204
210
191
202
230
172
147
137
133
119
113
119
97
89
85
79
78
84
93
81
75
77
90
75
112
191
195
212
184
215
100
155
187
63
52
46
115
172
160
105
99
67
72
100
233
252
247
251
244
166
141
187
156
203
144
144
145
110
115
94
114
106
107
112
109
87
94
124
85
79
87
88
87
76
70
80
83
79
87
82
91
82
95
80
83
104
96
135
151
128
121
113
107
100
149
142
145
146
146
104
107
136
108
137
119
129
143
142
139
115
117
120
121
136
110
143
112
146
78
76
81
82
87
75
70
79
84
72
85
84
91
85
82
95
97
104
110
133
137
131
130
137
130
135
120
109
110
103
110
102
108
88
92
85
85
115
97
96
133
120
93
117
126
139
132
148
136
157
68
69
76
69
77
73
66
58
70
64
79
76
84
72
79
90
101
109
107
134
133
138
126
123
136
130
111
93
104
96
92
105
101
99
91
91
75
78
85
107
94
99
102
110
110
118
120
140
128
153
24
42
37
36
46
60
57
53
48
54
72
78
78
61
64
88
93
102
85
116
111
132
109
99
130
117
99
68
95
84
71
71
58
79
76
59
68
61
59
85
93
94
115
89
100
117
109
136
119
154
27
28
36
39
46
58
63
44
55
75
87
92
92
92
91
87
94
94
87
129
123
124
107
114
122
101
114
138
149
119
89
62
66
62
83
77
62
68
70
73
84
85
106
98
108
112
107
132
119
141
34
36
44
39
45
55
66
56
58
56
75
87
88
90
98
87
86
82
83
116
130
132
97
103
118
110
142
138
140
102
61
62
56
69
64
83
64
53
72
67
64
89
100
137
121
112
99
120
117
141
34
29
43
37
39
48
59
53
56
46
70
68
82
76
87
67
66
69
71
85
84
81
95
91
88
82
135
99
84
71
67
58
88
61
63
60
58
57
69
56
68
68
87
82
98
110
102
119
88
114
39
41
41
35
38
46
59
54
35
40
65
66
65
51
55
49
49
40
37
56
71
59
52
39
82
76
100
91
88
69
51
54
56
62
51
58
37
59
62
66
59
78
84
78
104
146
132
125
80
107
53
49
53
52
44
54
67
59
51
47
56
50
46
46
43
47
36
47
60
53
57
62
64
68
69
74
76
81
76
74
68
65
69
88
85
76
50
74
91
77
65
63
82
120
133
132
144
142
135
138
67
64
51
49
47
53
59
55
40
39
49
48
45
39
33
33
18
53
61
62
64
65
69
72
77
80
83
85
87
92
98
97
99
102
104
108
48
108
113
117
117
120
122
123
121
122
123
125
137
149
64
59
60
64
60
56
66
50
43
38
49
43
34
30
45
36
47
61
65
67
68
70
72
75
78
82
100
111
106
95
96
96
100
97
96
94
49
122
119
117
109
110
107
110
106
108
110
112
113
112
59
66
65
63
58
52
55
48
41
38
45
40
42
61
58
61
64
65
66
73
68
74
80
77
78
79
80
80
82
85
87
90
94
102
101
102
44
99
102
116
129
138
148
158
163
157
146
74
124
132
63
67
59
53
48
50
53
45
41
40
39
58
74
60
62
64
65
75
76
77
75
73
75
77
81
91
81
77
77
77
73
81
79
85
91
94
40
97
92
92
87
91
94
99
104
122
134
33
106
135
58
52
47
45
45
45
48
44
35
49
78
58
63
61
63
63
64
63
68
88
74
83
81
71
74
75
98
91
85
78
75
75
74
74
78
73
36
82
83
87
82
88
89
86
88
93
93
103
104
108
44
44
43
42
46
54
37
34
69
62
61
58
59
62
61
61
61
66
67
67
72
88
80
76
82
77
75
74
82
81
75
69
66
65
61
60
40
62
62
63
76
78
76
78
82
81
77
73
75
70
42
44
42
50
47
34
58
80
61
58
61
63
65
61
60
61
65
63
64
63
67
69
69
73
75
75
74
71
71
73
73
68
68
65
63
61
58
51
53
55
50
63
77
77
66
59
50
47
48
40
40
45
47
29
46
82
69
53
57
60
60
60
58
58
60
60
64
64
59
64
68
68
68
68
68
67
70
70
69
72
71
71
69
68
65
59
60
52
49
68
19
21
28
49
44
35
44
40
44
45
47
29
32
63
83
51
62
59
64
60
60
58
58
58
61
61
61
68
63
65
68
69
67
67
67
72
69
69
71
72
68
71
73
70
67
63
62
48
43
52
35
31
30
28
31
37
35
44
49
49
26
48
82
68
57
61
60
58
59
59
58
58
56
57
63
64
63
60
63
65
69
66
64
63
68
68
67
69
72
71
71
76
68
71
67
72
72
66
66
58
47
38
39
41
37
37
41
44
49
51
68
88
56
55
62
59
59
56
55
55
58
58
59
60
65
64
59
62
63
66
65
63
65
67
67
64
70
70
72
72
73
69
74
71
68
73
71
71
63
52
49
67
72
63
64
56
59
57
52
46
74
49
61
57
56
59
59
55
55
56
57
61
60
62
63
61
61
61
63
67
66
65
64
64
66
65
69
67
70
68
66
72
75
69
72
77
75
69
78
58
57
79
104
91
101
101
102
85
61
88
62
56
60
57
57
61
55
58
56
58
58
60
62
57
62
62
62
62
61
64
68
63
62
66
69
67
70
69
71
70
65
68
68
65
72
68
75
73
82
71
56
73
105
109
82
65
87
69
56
84
58
56
63
60
61
59
58
60
59
56
55
59
59
62
61
58
62
63
66
64
64
61
64
64
64
64
67
66
71
67
69
66
64
68
68
70
72
65
68
71
59
82
102
65
71
77
62
52
87
78
